<svg width="0" height="0" class="hidden">
  <symbol xmlns="http://www.w3.org/2000/svg" xmlns:xlink="http://www.w3.org/1999/xlink" viewBox="0 0 693 528" id="frontend">
    <path d="M946.5,469.5V691.31A22.71737,22.71737,0,0,1,923.81,714H753.67l1.58-2L944.5,472.04Z" transform="translate(-253.5 -186)" fill="#f2f2f2"></path>
    <path d="M524.3118,391.368H328.943a6.036,6.036,0,0,0,0,12.072H524.3118a6.036,6.036,0,0,0,0-12.072Z" transform="translate(-253.5 -186)" fill="#e6e6e6"></path>
    <path d="M389.51753,357.52356H328.943a6.036,6.036,0,0,0,0,12.072h60.57458a6.036,6.036,0,0,0,0-12.072Z" transform="translate(-253.5 -186)" fill="#e6e6e6"></path>
    <path d="M923.81,186H276.19a22.71737,22.71737,0,0,0-22.69,22.69V691.31A22.71737,22.71737,0,0,0,276.19,714H923.81a22.71737,22.71737,0,0,0,22.69-22.69V208.69A22.71737,22.71737,0,0,0,923.81,186ZM944.5,691.31A20.69,20.69,0,0,1,923.81,712H276.19a20.69,20.69,0,0,1-20.69-20.69V343.67554A155.67554,155.67554,0,0,1,411.17554,188H923.81a20.69,20.69,0,0,1,20.69,20.69Z" transform="translate(-253.5 -186)" fill="#e6e6e6"></path>
    <path d="M883.39049,273.26853H316.66a1,1,0,0,1,0-2H883.39049a1,1,0,0,1,0,2Z" transform="translate(-253.5 -186)" fill="#e6e6e6"></path>
    <ellipse cx="91.51486" cy="48.60301" rx="8.45661" ry="8.64507" fill="#e6e6e6"></ellipse>
    <ellipse cx="120.72861" cy="48.60301" rx="8.45661" ry="8.64507" fill="#e6e6e6"></ellipse>
    <ellipse cx="149.94237" cy="48.60301" rx="8.45661" ry="8.64507" fill="#e6e6e6"></ellipse>
    <path d="M436.75379,241.4358a.9967.9967,0,0,1-.71485-.30078l-5.70605-5.833a.99954.99954,0,0,1,0-1.39844l5.70605-5.83251a1,1,0,1,1,1.42969,1.39843l-5.022,5.1333,5.022,5.13379a1,1,0,0,1-.71484,1.69922Z" transform="translate(-253.5 -186)" fill="#e6e6e6"></path>
    <path d="M446.34217,241.4358a1,1,0,0,1-.71485-1.69922l5.02149-5.13379-5.02149-5.1333a1,1,0,0,1,1.42969-1.39843l5.70557,5.83251a.99954.99954,0,0,1,0,1.39844l-5.70557,5.833A.9967.9967,0,0,1,446.34217,241.4358Z" transform="translate(-253.5 -186)" fill="#e6e6e6"></path>
    <path d="M832.852,226.95884h-10.61a2.18935,2.18935,0,0,0-2.19,2.19v10.62a2.18936,2.18936,0,0,0,2.19,2.19h10.61a2.19791,2.19791,0,0,0,2.2-2.19v-10.62A2.1979,2.1979,0,0,0,832.852,226.95884Z" transform="translate(-253.5 -186)" fill="#e6e6e6"></path>
    <path d="M806.852,226.95884h-10.61a2.18935,2.18935,0,0,0-2.19,2.19v10.62a2.18936,2.18936,0,0,0,2.19,2.19h10.61a2.19791,2.19791,0,0,0,2.2-2.19v-10.62A2.1979,2.1979,0,0,0,806.852,226.95884Z" transform="translate(-253.5 -186)" fill="#e6e6e6"></path>
    <path d="M857.352,227.45884h-10.61a2.18935,2.18935,0,0,0-2.19,2.19v10.62a2.18936,2.18936,0,0,0,2.19,2.19h10.61a2.19791,2.19791,0,0,0,2.2-2.19v-10.62A2.1979,2.1979,0,0,0,857.352,227.45884Z" transform="translate(-253.5 -186)" fill="#e6e6e6"></path>
    <path d="M642.4303,231.49881h-84.81a2.67,2.67,0,1,0,0,5.34h84.81a2.67,2.67,0,0,0,0-5.34Z" transform="translate(-253.5 -186)" fill="#e6e6e6"></path>
    <path d="M415.10743,596.44634l-50.717-1.60323c-7.03419-.22236-14.94447-.211-19.96166,3.42421-5.6943,4.12585-4.83213,11.43535-.10431,16.17646s12.277,7.44976,19.68637,9.652c39.36385,11.7,82.92866,14.07521,125.229,11.42782s83.73-10.13147,124.95545-17.59027c3.91-.70743,8.3414-1.7253,9.93587-4.44631,1.54247-2.63224-.47577-5.80651-3.61075-7.50776s-7.10942-2.27452-10.94329-2.78084a1027.70791,1027.70791,0,0,0-209.50054-5.976" transform="translate(-253.5 -186)" fill="#3679ac"></path>
    <path d="M506.23,557.44v-12c-8.70812.12331-39.87043-.08886-48,.00027-.605,41.94091-4.31337,33.72515,30.04795,33.88847a5.97483,5.97483,0,0,1,5.95226,5.96665l0,.18a5.965,5.965,0,0,1-5.96511,5.96462H458.23v12h48c.0674-.04016-.04859-11.58721.00015-12,2.02955-34.76507-1.98621-22.26148-31.16579-23.65566a5.0949,5.0949,0,0,1-4.83453-5.09462l0-.1499a5.1001,5.1001,0,0,1,5.09983-5.09981Z" transform="translate(-253.5 -186)" fill="#3f3d56"></path>
    <path d="M565.23,557.44v-12c-8.70812.12331-39.87043-.08886-48,.00027-.61022,42.30528-4.378,33.57862,30.95215,33.89466a5.1,5.1,0,0,1,5.04814,5.09957c-.00006.63012-.00011,1.27547-.00015,1.90717a5.0988,5.0988,0,0,1-5.09982,5.09833H517.23v12h48c.0674-.04016-.04859-11.58721.00015-12,2.02955-34.76507-1.98621-22.26148-31.16579-23.65566a5.0949,5.0949,0,0,1-4.83453-5.09462l0-.1499a5.1001,5.1001,0,0,1,5.09983-5.09981Z" transform="translate(-253.5 -186)" fill="#3f3d56"></path>
    <path d="M444.23,557.44v-12h-48c-.034,10.70325.0245,39.0319-.00007,49.99987-9.40881,15.92872,44.04243,4.90065,48.00271,8.00441C444.23,603.44,444.23,591.44,444.23,591.44c-36.5211-.19074-37.43887,6.6459-36.264-26.42981a7.84378,7.84378,0,0,1,7.83373-7.57093C426.358,557.44,444.23,557.44,444.23,557.44Z" transform="translate(-253.5 -186)" fill="#3f3d56"></path>
    <path d="M539.10743,453.11245l-50.717-1.33642c-7.03419-.18536-14.94447-.17591-19.96166,2.85435-5.6943,3.43922-4.83213,9.53228-.10431,13.48439s12.277,6.21,19.68637,8.04575c39.36385,9.75291,82.92866,11.73282,125.229,9.526s83.73-8.4454,124.95545-14.66291c3.91-.5897,8.3414-1.43818,9.93587-3.70636,1.54247-2.19419-.47577-4.84019-3.61075-6.25832s-7.10942-1.896-10.94329-2.31806a1231.4445,1231.4445,0,0,0-209.50054-4.98149" transform="translate(-253.5 -186)" fill="#3679ac"></path>
    <path d="M530.22986,400.44c-.81725,18.52643,5.99213,24.3577-17.501,21.99778-1.58724-11.0521,6.46193-26.38959-11.99874-22.49565,3.69817,8.01754-10.3027,68.844,11.99588,57.99455,1.25236-18.27481-7.00207-26.29029,17.50448-23.49444,1.96518,11.297-7.2074,27.92118,11.99857,23.996C538.53142,450.41692,552.53242,389.596,530.22986,400.44Z" transform="translate(-253.5 -186)" fill="#3f3d56"></path>
    <path d="M653.22986,400.44c1.64714,1.01689-15.09043,18.72384-15.45157,20.1747-.50211-1.23824-16.47736-18.56236-14.5483-20.174-22.22954-10.985-8.37541,50.19481-12.00424,58.002.00411-.00271,12.00411-.00271,12.00411-.00271V420.44177c16.86715,22.74983,13.73491,18.92152,30.00031-1.11688L653.22986,458.44c22.2288,10.98872,8.37573-50.19873,12.00412-58.0027C665.22986,400.44,653.22986,400.44,653.22986,400.44Z" transform="translate(-253.5 -186)" fill="#3f3d56"></path>
    <path d="M600.22986,400.44h-48c-2.82037,16.82193,6.50508,11.1801,18.00167,11.99963L570.22986,458.44h12v-46C593.67321,411.66182,603.08577,417.18779,600.22986,400.44Z" transform="translate(-253.5 -186)" fill="#3f3d56"></path>
    <path d="M687.22986,446.44a128.27936,128.27936,0,0,1,0-46h-12c.06918,7.60291-.02139,38.28212-.01434,52.31169a5.71,5.71,0,0,0,5.7058,5.71268c12.08981.016,35.17-.07316,42.30866-.02419L723.22986,446.44Z" transform="translate(-253.5 -186)" fill="#3f3d56"></path>
    <path d="M380.68115,448.44H331.907a9,9,0,0,0,0,18h48.77419a9,9,0,0,0,0-18Z" transform="translate(-253.5 -186)" fill="#e6e6e6"></path>
    <polygon points="569.392 517.568 559.491 517.567 554.781 479.377 569.394 479.378 569.392 517.568" fill="#ffb6b6"></polygon>
    <path d="M823.24065,713.89669l-30.447-.00115v-.385a11.85147,11.85147,0,0,1,11.85083-11.85065h.00073l5.56152-4.21924,10.37659,4.21991,2.65784.00006Z" transform="translate(-253.5 -186)" fill="#2f2e41"></path>
    <polygon points="604.392 517.568 594.491 517.567 589.781 479.377 604.394 479.378 604.392 517.568" fill="#ffb6b6"></polygon>
    <path d="M858.24065,713.89669l-30.447-.00115v-.385a11.85147,11.85147,0,0,1,11.85083-11.85065h.00073l5.56152-4.21924,10.37659,4.21991,2.65784.00006Z" transform="translate(-253.5 -186)" fill="#2f2e41"></path>
    <path d="M798.23947,495.48018s-9.5262,29.25813-7.76785,33.109S795.23,529.44,792.23,532.44s-5.61884-.189-2.80942,4.90551,7.06559,47.03407,8.93751,49.06428,4.44568,2.08468,2.15879,4.05745S795.23,588.44,798.23,592.44s10.96063,96.27559,10.96063,96.27559h15.55114s3.87318-4.46456,1.68071-7.37008.19247-4.02548,0-5.96549.53674-6.12277.67213-8.03139,2.76354-47.37757-3.55054-73.6431l11.51362-50.01216,5.75679,60.44638s-6.41553,50.70183,0,67.001c0,0-5.17233,4.30709-2.87841,6.80315S842.23,678.44,840.23,680.44s3,9,3,9l17-1,9.62205-94.73447s1.622-9.8797,0-11.57261S868.23,586.44,868.23,580.44v-8s7.25056-49.20472,7.12528-52.10236S863.23,496.44,863.23,496.44Z" transform="translate(-253.5 -186)" fill="#2f2e41"></path>
    <path d="M848.51935,377.14728l-24.823-1.70728-7.42785,11.712-17.88863,7.27293v57.69454A55.60033,55.60033,0,0,1,801.23,469.44c-.06823,11.49453-3.02253,25.03466-2,28,10,29,65,0,65,0l-1-31,1.3574-70.05937-11.23893-8.96384Z" transform="translate(-253.5 -186)" fill="#e6e6e6"></path>
    <path d="M797.23253,508.00462,795.521,489.76337l-10.55686-.47618,2.49569,19.2214a6.13324,6.13324,0,1,0,9.77265-.504Z" transform="translate(-253.5 -186)" fill="#ffb6b6"></path>
    <path d="M802.42783,392.88645l-.29266.04951a16.98787,16.98787,0,0,0-12.58455,9.62841c-3.02332,6.5379-12.8398,49.51683-8.53654,55.99808,3.3376,5.02689,2.52673,4.04615.95778,7.838s-4.0957-.25436-2.02478,5.76366,4.34666,5.1593,2.42433,7.48456-3.89421,1.86944-2.02477,5.76366,1.56555,5.20879,1.91895,6.67532.04613,11.78169.04613,11.78169,11.27634-.85538,16.888,1.82668c0,0-3.13114-10.41759-1.36073-12.08558s3.89423-1.86945,2.37818-4.29714-4.95445-2.53012-1.21216-3.74229,2.5369-22.95558,2.5369-22.95558C807.70522,446.47493,805.26991,419.92688,802.42783,392.88645Z" transform="translate(-253.5 -186)" fill="#e6e6e6"></path>
    <path d="M870.42228,509.30641l.78906-18.30436,10.51939-1.00815-1.52282,19.32283a6.13324,6.13324,0,1,1-9.78563-.01032Z" transform="translate(-253.5 -186)" fill="#ffb6b6"></path>
    <path d="M859.42612,394.59691l.29478.03468a16.9879,16.9879,0,0,1,13.05426,8.98129c3.34929,6.37706,13.94508,49.56879,11.35067,55.49615-2.41947,5.52769-2.3194,4.16845-.56116,7.87628s4.07765-.46066,2.313,5.65418-4.08085,5.372-2.04366,7.59733,3.98356,1.6706,2.313,5.65417-1.30078,5.28114-1.57975,6.76363.54829,11.769.54829,11.769-11.30514-.28542-16.77439,2.67632c0,0,2.60161-10.56228.74931-12.13883s-3.98358-1.67062-2.59193-4.17169,4.8205-2.77685,1.02182-3.79868-3.6917-22.79838-3.6917-22.79838Z" transform="translate(-253.5 -186)" fill="#e6e6e6"></path>
    <circle cx="583.21719" cy="166.41031" r="19.36219" fill="#ffb6b6"></circle>
    <path d="M850.19186,368.98408c2.69286-2.10746,2.95426-6.12449,5.25223-8.65672,3.8421-4.23373,5.64722-8.78866,3.63458-13.80527-1.78015-4.437-1.40178-9.89125-5.23573-12.74732,1.883-.68165,2.32615-2.09722.66469-2.12336-1.12042-.01762-5.29722,2.12375-3.28744-.54383s-1.7946-1.61462-1.543-2.70656,1.8652-1.69671,2.57686-.83115a5.6397,5.6397,0,0,0-8.84591,1.01189c-2.26458-3.39392-4.66838-5.72925-8.13365-3.57547-3.40345,2.11532-3.359,4.73016-7.01886,4.10174-1.72058-.29541-1.88315,2.95523-3.05854,4.246a5.24691,5.24691,0,0,1-4.609,1.96555c-1.7154-.32418-3.02709-2.46193-2.06587-3.91923l-4.043,9.22356-1.62943-1.99866c-2.58913,1.68734-1.73874,6.09027.86747,7.7511s5.993,1.30585,8.99444.56967a35.27556,35.27556,0,0,1,11.05161-.91662c5.6662.80049,9.61278,7.57467,7.51461,12.89861,2.177-2.13776,6.20431-.36368,7.3321,2.47138s.30082,6.02913-.5352,8.96351" transform="translate(-253.5 -186)" fill="#2f2e41"></path>
  </symbol>
  <symbol xmlns="http://www.w3.org/2000/svg" xmlns:xlink="http://www.w3.org/1999/xlink" viewBox="0 0 697.48425 461.23435" id="backend">
    <path d="M772.03739,521.9677a6.816,6.816,0,0,1,4.23934-8.59309,6.63976,6.63976,0,0,1,1.06574-.25678l3.65181-14.98328,9.52107.02944-5.45015,21.08585a6.79262,6.79262,0,0,1-4.55318,7.0165A6.68025,6.68025,0,0,1,772.03739,521.9677Z" transform="translate(-251.25787 -219.38283)" fill="#9f616a"></path>
    <path d="M788.112,512.27175l-14.5821-1.02465,7.06247-42.67513-4.49427-46.99,14.74064-6.12839,9.8301,52.18271-.02686.09511Z" transform="translate(-251.25787 -219.38283)" fill="#2f2e41"></path>
    <path d="M675.36028,507.27008a6.75056,6.75056,0,0,1,6.62337-6.87134,6.62778,6.62778,0,0,1,1.09218.08525L691.063,487.3455l9.058,2.97424-11.53638,18.39348a6.68783,6.68783,0,0,1-13.22433-1.44314Z" transform="translate(-251.25787 -219.38283)" fill="#9f616a"></path>
    <polygon points="469.071 452.168 461.314 452.168 457.624 421.83 469.073 421.831 469.071 452.168" fill="#9f616a"></polygon>
    <path d="M722.3074,679.17549l-25.01181-.00094v-.32078a9.87623,9.87623,0,0,1,2.85186-6.98009,9.60472,9.60472,0,0,1,6.88343-2.89109h.00062l15.27636.00063Z" transform="translate(-251.25787 -219.38283)" fill="#2f2e41"></path>
    <polygon points="523.187 452.168 515.43 452.168 511.74 421.83 523.188 421.831 523.187 452.168" fill="#9f616a"></polygon>
    <path d="M776.423,679.17549l-25.01182-.00094v-.32078a9.87629,9.87629,0,0,1,2.85187-6.98009,9.6047,9.6047,0,0,1,6.88343-2.89109h.00062l15.27636.00063Z" transform="translate(-251.25787 -219.38283)" fill="#2f2e41"></path>
    <ellipse cx="515.81024" cy="148.59277" rx="18.42846" ry="18.68597" fill="#9f616a"></ellipse>
    <path d="M760.84393,366.95084a12.35944,12.35944,0,0,1-15.21708-5.47224,12.72349,12.72349,0,0,1,3.901-15.88632c4.90489-3.32829,12.23-2.22669,16.985,1.63339a16.4326,16.4326,0,0,1,19.18179,4.03624c4.5902,5.38421,5.092,13.93075,1.74685,20.20734a22.236,22.236,0,0,0,1.27066,20.56671c-1.43927-.0595-4.60723-.32982-8.57117-.6766-1.14708-.10035-1.64319-3.51676-2.901-3.62665-1.10924-.09692-2.97036,3.11337-4.13262,3.01379-8.6087-.73756-18.24663-1.48682-22.61445-1.34025A241.58716,241.58716,0,0,1,760.84393,366.95084Z" transform="translate(-251.25787 -219.38283)" fill="#2f2e41"></path>
    <path d="M781.20064,499.61552s5.98934,6.26095,2.33226,38.592l-2.52661,68.65109-4.47016,60.78749-14.38224-.96965L749.52084,526.76567l-17.68626,51.19742-9.52338,84.64083-13.79918-.96965-2.35655-84.17039,6.04929-65.049Z" transform="translate(-251.25787 -219.38283)" fill="#2f2e41"></path>
    <path d="M721.92327,516.33092c-7.35829.00041-10.32193-.89662-10.53859-.96571l-.34152-.10893.05993-.35767c.0491-.29386,4.99291-29.52053,11.77619-44.86466l4.76985-62.22638a8.16093,8.16093,0,0,1,6.836-7.49607l.06374.41132-.06374-.41132,12.13315-1.93143,7.422-6.62668,17.78.997,1.5679,7.62613c2.12648.60276,16.15942,4.96351,17.54835,15.40591l.01723.13087-.05992.11665-25.70853,50.14723c2.17257,2.17408,19.34132,20.05727,20.50658,42.91941l.02805.54992-.52931-.12274c-.0493-.01016-5.54367-1.069-34.43531,3.88358C737.39325,515.69727,728.10649,516.33092,721.92327,516.33092Z" transform="translate(-251.25787 -219.38283)" fill="#2f2e41"></path>
    <path d="M693.42306,506.96723l-10.47887-8.18255,23.38825-47.44762,21.75321-46.503a3.4598,3.4598,0,0,1,6.49127.5739l5.38433,19.80608L723.1236,469.63279Z" transform="translate(-251.25787 -219.38283)" fill="#2f2e41"></path>
    <path d="M918.36477,678.837l.62262-1.15126c-8.34812-4.51495-18.73781-10.13354-24.16445-19.35423-5.34945-9.08964-5.46946-21.43268-.3132-32.21247,4.38806-9.17433,12.44869-17.39365,23.31031-23.76971,2.1424-1.2577,4.3914-2.44956,6.56641-3.60242,5.25725-2.78612,10.69349-5.66748,15.176-9.75508,6.17376-5.63008,10.845-15.078,7.3634-23.49358a15.61545,15.61545,0,0,0-13.535-9.47l-.07384,1.30724a14.30953,14.30953,0,0,1,12.40281,8.67191c3.23533,7.82044-1.20354,16.695-7.03947,22.01726-4.35992,3.97574-9.72169,6.81747-14.90687,9.56555-2.18731,1.15925-4.44926,2.35814-6.61627,3.63022-11.08759,6.50871-19.32737,14.923-23.82841,24.33353-5.34164,11.16748-5.2015,23.98164.36594,33.44172C899.30623,668.53019,909.87362,674.2453,918.36477,678.837Z" transform="translate(-251.25787 -219.38283)" fill="#f1f1f1"></path>
    <ellipse cx="673.83562" cy="337.98147" rx="11.45514" ry="5.56393" fill="#f1f1f1"></ellipse>
    <ellipse cx="664.67148" cy="374.63791" rx="11.45514" ry="5.56393" fill="#f1f1f1"></ellipse>
    <ellipse cx="685.61801" cy="380.52914" rx="11.45514" ry="5.56393" fill="#f1f1f1"></ellipse>
    <ellipse cx="652.88901" cy="411.29435" rx="11.45514" ry="5.56393" fill="#f1f1f1"></ellipse>
    <ellipse cx="629.97873" cy="411.29433" rx="11.45514" ry="5.56393" fill="#f1f1f1"></ellipse>
    <path d="M947.25787,680.61717H573.74213a1,1,0,0,1,0-2h374a1.00006,1.00006,0,0,1,1,1C948.74213,680.16942,947.81012,680.61717,947.25787,680.61717Z" transform="translate(-251.25787 -219.38283)" fill="#cbcbcb"></path>
    <path d="M479.79658,331.15406h-166a5.0058,5.0058,0,0,1-5-5v-56a5.00581,5.00581,0,0,1,5-5h166a5.00573,5.00573,0,0,1,5,5v56A5.00573,5.00573,0,0,1,479.79658,331.15406Z" transform="translate(-251.25787 -219.38283)" fill="#3f3d56"></path>
    <rect x="83.53871" y="60.77124" width="44" height="5" fill="#fff"></rect>
    <circle cx="185.53871" cy="63.77124" r="3" fill="#6c63ff"></circle>
    <circle cx="195.53871" cy="63.77124" r="3" fill="#6c63ff"></circle>
    <circle cx="205.53871" cy="63.77124" r="3" fill="#6c63ff"></circle>
    <path d="M479.79658,402.15406h-166a5.0058,5.0058,0,0,1-5-5v-56a5.00581,5.00581,0,0,1,5-5h166a5.00573,5.00573,0,0,1,5,5v56A5.00573,5.00573,0,0,1,479.79658,402.15406Z" transform="translate(-251.25787 -219.38283)" fill="#3f3d56"></path>
    <rect x="83.53871" y="131.77124" width="44" height="5" fill="#fff"></rect>
    <circle cx="185.53871" cy="134.77124" r="3" fill="#6c63ff"></circle>
    <circle cx="195.53871" cy="134.77124" r="3" fill="#6c63ff"></circle>
    <circle cx="205.53871" cy="134.77124" r="3" fill="#6c63ff"></circle>
    <path d="M479.79658,473.15406h-166a5.0058,5.0058,0,0,1-5-5v-56a5.00581,5.00581,0,0,1,5-5h166a5.00573,5.00573,0,0,1,5,5v56A5.00573,5.00573,0,0,1,479.79658,473.15406Z" transform="translate(-251.25787 -219.38283)" fill="#3f3d56"></path>
    <rect x="83.53871" y="202.77124" width="44" height="5" fill="#fff"></rect>
    <circle cx="185.53871" cy="205.77124" r="3" fill="#6c63ff"></circle>
    <circle cx="195.53871" cy="205.77124" r="3" fill="#6c63ff"></circle>
    <circle cx="205.53871" cy="205.77124" r="3" fill="#6c63ff"></circle>
    <polygon points="168 297.234 0 297.234 0 231 2 231 2 295.234 168 295.234 168 297.234" fill="#ccc"></polygon>
    <polygon points="105 0 273 0 273 66.234 271 66.234 271 2 105 2 105 0" fill="#ccc"></polygon>
  </symbol>
  <symbol xmlns="http://www.w3.org/2000/svg" xmlns:xlink="http://www.w3.org/1999/xlink" viewBox="0 0 945 583.2243" id="database">
    <path id="b0cf38c7-358d-48dc-a444-e9782686dfa5-275" d="M222.88482,693.5243a24.21463,24.21463,0,0,0,23.38269-4.11877c8.18977-6.87442,10.758-18.196,12.84671-28.68191l6.17972-31.01657-12.93769,8.90836c-9.30465,6.40641-18.81827,13.01866-25.26012,22.29785s-9.25222,21.94708-4.07792,31.988" transform="translate(-127.5 -158.38785)" fill="#e6e6e6"></path>
    <path id="acbbaa8b-0bc2-4bc9-96d7-93dd88f90f19-276" d="M224.88254,733.23486c-1.6284-11.86369-3.30382-23.88079-2.15885-35.87167,1.01467-10.64933,4.26374-21.04881,10.87831-29.57938a49.20592,49.20592,0,0,1,12.62466-11.44039c1.26216-.79648,2.4241,1.20354,1.16733,1.997A46.77938,46.77938,0,0,0,228.88954,680.666c-4.02858,10.24607-4.67546,21.41582-3.98154,32.30029.41943,6.58218,1.31074,13.12121,2.20587,19.65252a1.19817,1.19817,0,0,1-.808,1.4225,1.16348,1.16348,0,0,1-1.42253-.808Z" transform="translate(-127.5 -158.38785)" fill="#f2f2f2"></path>
    <path id="bed63620-84ae-4c66-a7c8-0d9b30f8c1e7-277" d="M236.60356,714.19841A17.82515,17.82515,0,0,0,252.135,722.217c7.8644-.37318,14.41806-5.85972,20.31713-11.07026l17.452-15.40881-11.54988-.5528c-8.30619-.39784-16.82672-.771-24.73813,1.79338s-15.20758,8.72639-16.654,16.9154" transform="translate(-127.5 -158.38785)" fill="#e6e6e6"></path>
    <path id="fc4eb8ca-daad-4589-b224-2c71eec1c546-278" d="M220.27955,740.05454c7.83972-13.87142,16.93235-29.28794,33.1808-34.21551A37.02589,37.02589,0,0,1,267.4158,704.398c1.4819.128,1.1118,2.41174-.367,2.28454a34.39824,34.39824,0,0,0-22.27164,5.89215c-6.27994,4.27453-11.16975,10.21755-15.30781,16.51907-2.5351,3.8605-4.80576,7.88445-7.07642,11.903C221.66738,742.28125,219.54555,741.35371,220.27955,740.05454Z" transform="translate(-127.5 -158.38785)" fill="#f2f2f2"></path>
    <path id="ec83fa9a-7bb4-4b90-a90b-e1cec4444963-279" d="M1008.35714,710.03894a17.82515,17.82515,0,0,1-17.065,3.78282c-7.50783-2.37076-12.4416-9.35006-16.813-15.89522l-12.93426-19.3574,11.30757,2.41744c8.132,1.73826,16.46493,3.55513,23.45819,8.05635s12.47224,12.32329,11.77771,20.61" transform="translate(-127.5 -158.38785)" fill="#e6e6e6"></path>
    <path id="e32935a9-e392-46b4-9a67-68c65f1cc9fa-280" d="M1017.53074,739.20841c-4.03412-15.41439-8.88464-32.64277-23.33408-41.55944a37.026,37.026,0,0,0-13.12367-4.9599c-1.46539-.255-1.69126,2.04749-.22905,2.30247a34.39822,34.39822,0,0,1,20.02606,11.3886c4.9789,5.73758,8.18741,12.733,10.57751,19.88279,1.46425,4.38021,2.63106,8.85084,3.79926,13.31624C1015.61991,741.00647,1017.90833,740.652,1017.53074,739.20841Z" transform="translate(-127.5 -158.38785)" fill="#f2f2f2"></path>
    <path d="M858.65906,513.48057H594.33494a7.97081,7.97081,0,0,1-7.96157-7.96157V416.34942a7.97081,7.97081,0,0,1,7.96157-7.96157H858.65906a7.9707,7.9707,0,0,1,7.96157,7.96157V505.519A7.9707,7.9707,0,0,1,858.65906,513.48057Z" transform="translate(-127.5 -158.38785)" fill="#f1f1f1"></path>
    <rect x="500.27353" y="273.88471" width="70.06181" height="7.96157" fill="#6c63ff"></rect>
    <circle cx="662.68956" cy="278.66165" r="4.77694" fill="#6c63ff"></circle>
    <circle cx="678.6127" cy="278.66165" r="4.77694" fill="#6c63ff"></circle>
    <circle cx="694.53583" cy="278.66165" r="4.77694" fill="#6c63ff"></circle>
    <path d="M858.65906,626.53486H594.33494a7.97081,7.97081,0,0,1-7.96157-7.96157V529.40371a7.97081,7.97081,0,0,1,7.96157-7.96157H858.65906a7.9707,7.9707,0,0,1,7.96157,7.96157v89.16958A7.9707,7.9707,0,0,1,858.65906,626.53486Z" transform="translate(-127.5 -158.38785)" fill="#f1f1f1"></path>
    <rect x="500.27353" y="386.939" width="70.06181" height="7.96157" fill="#6c63ff"></rect>
    <circle cx="662.68956" cy="391.71594" r="4.77694" fill="#6c63ff"></circle>
    <circle cx="678.6127" cy="391.71594" r="4.77694" fill="#6c63ff"></circle>
    <circle cx="694.53583" cy="391.71594" r="4.77694" fill="#6c63ff"></circle>
    <path d="M858.65906,739.58915H594.33494a7.97081,7.97081,0,0,1-7.96157-7.96156V642.458a7.97081,7.97081,0,0,1,7.96157-7.96157H858.65906a7.9707,7.9707,0,0,1,7.96157,7.96157v89.16959A7.97069,7.97069,0,0,1,858.65906,739.58915Z" transform="translate(-127.5 -158.38785)" fill="#f1f1f1"></path>
    <rect x="500.27353" y="499.99329" width="70.06181" height="7.96157" fill="#6c63ff"></rect>
    <circle cx="662.68956" cy="504.77024" r="4.77694" fill="#6c63ff"></circle>
    <circle cx="678.6127" cy="504.77024" r="4.77694" fill="#6c63ff"></circle>
    <circle cx="694.53583" cy="504.77024" r="4.77694" fill="#6c63ff"></circle>
    <path d="M759.01179,321.31453l-.29232-.216-.007-.00528a3.57626,3.57626,0,0,0-5.00334.73888L694.21319,401.9379h-6.54562v-1.53783a1.43056,1.43056,0,0,0-1.43052-1.43052h-3.90531a1.43056,1.43056,0,0,0-1.43052,1.43052v1.53783h-2.26034v-1.53783a1.43056,1.43056,0,0,0-1.43052-1.43052h-3.9053a1.43057,1.43057,0,0,0-1.43053,1.43052v1.53783h-2.253v-1.53783a1.43057,1.43057,0,0,0-1.43053-1.43052h-3.9053a1.43056,1.43056,0,0,0-1.43052,1.43052v1.53783h-2.26034v-1.53783a1.43056,1.43056,0,0,0-1.43052-1.43052H655.259a1.43057,1.43057,0,0,0-1.43053,1.43052v1.53783h-2.253v-1.53783a1.43057,1.43057,0,0,0-1.43053-1.43052h-3.9053a1.43034,1.43034,0,0,0-1.43052,1.43052v1.53783H642.5488v-1.53783a1.43056,1.43056,0,0,0-1.43052-1.43052H637.213a1.43057,1.43057,0,0,0-1.43053,1.43052v1.53783h-2.26034v-1.53783a1.43056,1.43056,0,0,0-1.43052-1.43052h-3.9053a1.43057,1.43057,0,0,0-1.43053,1.43052v1.53783h-2.253v-1.53783a1.43056,1.43056,0,0,0-1.43052-1.43052h-3.9053a1.43057,1.43057,0,0,0-1.43053,1.43052v1.53783h-2.26034v-1.53783a1.43056,1.43056,0,0,0-1.43052-1.43052h-3.9053a1.43057,1.43057,0,0,0-1.43053,1.43052v1.53783h-2.253v-1.53783a1.43056,1.43056,0,0,0-1.43052-1.43052h-3.90531a1.43056,1.43056,0,0,0-1.43052,1.43052v1.53783H596.858a3.57618,3.57618,0,0,0-3.57631,3.57631V408.926a3.57618,3.57618,0,0,0,3.57631,3.57631h96.76151a5.32944,5.32944,0,0,0,5.21778-4.24744l.037.02751L759.74521,326.325l.00559-.00707A3.57671,3.57671,0,0,0,759.01179,321.31453Z" transform="translate(-127.5 -158.38785)" fill="#3f3d56"></path>
    <polygon points="255.504 550.825 267.523 556.976 296.966 513.544 279.228 504.466 255.504 550.825" fill="#ffb7b7"></polygon>
    <path d="M381.94612,703.72021l23.66983,12.113.001.00049a16.94563,16.94563,0,0,1,7.3641,22.8037l-.25087.49017-38.75427-19.83265Z" transform="translate(-127.5 -158.38785)" fill="#2f2e41"></path>
    <polygon points="394.317 567.652 407.819 567.652 414.242 515.575 394.315 515.575 394.317 567.652" fill="#ffb7b7"></polygon>
    <path d="M518.37323,721.632l26.58922-.00107h.00107a16.94563,16.94563,0,0,1,16.94473,16.94446v.55063l-43.53421.00162Z" transform="translate(-127.5 -158.38785)" fill="#2f2e41"></path>
    <path d="M458.66285,301.26058s-9.0412-6.9268-9.0412,9.99291l-1.42756,55.91271,15.94107,52.81966,9.27913-17.1307-3.80682-37.11652Z" transform="translate(-127.5 -158.38785)" fill="#2f2e41"></path>
    <path d="M555.37734,454.19165s10.48418,51.058-2.79579,92.95976l-7.33892,161.10695-26.90941-2.09684-9.43576-119.51969-9.0863-59.41037-18.87153,54.16828L418.73348,696.02681l-28.65677-22.36625s31.75629-86.64916,55.2167-104.84184l11.76615-134.011Z" transform="translate(-127.5 -158.38785)" fill="#2f2e41"></path>
    <circle cx="523.48018" cy="202.31369" r="30.68251" transform="translate(-32.63308 406.2144) rotate(-61.33685)" fill="#ffb7b7"></circle>
    <path d="M521.30883,208.82157c3.67807.47856,6.45254-3.28467,7.73937-6.76336s2.2673-7.5286,5.46514-9.40772c4.36891-2.56725,9.95872.52048,14.95479-.32655,5.64211-.95654,9.31053-6.93607,9.598-12.65146s-1.987-11.21239-4.21862-16.48193l-.77911,6.54884a12.98679,12.98679,0,0,0-5.67512-11.35154l1.00419,9.60941A10.199,10.199,0,0,0,537.6641,159.558l.15814,5.72564c-6.51663-.77489-13.09021-1.55087-19.62615-.96052s-13.11751,2.65828-18.0712,6.96269c-7.40994,6.43874-10.11621,17.04088-9.20765,26.81529s4.94341,18.95675,9.14865,27.827c1.058,2.23177,2.52146,4.75016,4.97491,5.03445,2.20445.25544,4.22155-1.58732,4.90683-3.698a13.40422,13.40422,0,0,0-.0595-6.58474c-.62-3.2946-1.40155-6.6621-.81863-9.96346s2.9579-6.56372,6.28582-6.96831,6.73322,3.3994,5.13321,6.34537Z" transform="translate(-127.5 -158.38785)" fill="#2f2e41"></path>
    <polygon points="429.776 309.458 327.357 302.85 335.066 270.913 428.674 291.838 429.776 309.458" fill="#cbcbcb"></polygon>
    <path d="M494.11389,244.15824l6.424-8.91878s7.18028,2.44014,26.40983,12.01183l1.35857,8.35615L561.685,460.9092,501.01375,458.292l-16.5219-.35153-5.4068-12.12-6.66725,11.86313-16.13421-.34328-16.41693-9.51706,16.179-49.48869,5.23438-45.206-8.0895-42.58883s-10.17937-39.10848,29.027-60.19538Z" transform="translate(-127.5 -158.38785)" fill="#2f2e41"></path>
    <path d="M630.86271,399.57305a10.48605,10.48605,0,0,1-13.04108-9.40577L581.82654,380.526l14.48005-12.85707,31.9616,11.12669a10.54289,10.54289,0,0,1,2.59452,20.77747Z" transform="translate(-127.5 -158.38785)" fill="#ffb7b7"></path>
    <path d="M614.74112,394.13009a6.14221,6.14221,0,0,1-4.987.39563l-59.21317-22.47383a63.2273,63.2273,0,0,1-34.03214-28.68449l-24.6929-44.04893a19.76509,19.76509,0,1,1,29.49118-26.323L564.04672,340.737l53.7869,31.53448a6.15547,6.15547,0,0,1,2.61747,6.54608l-2.67464,11.33426a6.1431,6.1431,0,0,1-1.86626,3.15032A6.07364,6.07364,0,0,1,614.74112,394.13009Z" transform="translate(-127.5 -158.38785)" fill="#2f2e41"></path>
    <path d="M1071.5,741.38785h-943a1,1,0,0,1,0-2h943a1,1,0,0,1,0,2Z" transform="translate(-127.5 -158.38785)" fill="#cbcbcb"></path>
  </symbol>
  <symbol xmlns="http://www.w3.org/2000/svg" xmlns:xlink="http://www.w3.org/1999/xlink" viewBox="0 0 738.57785 506.29416" id="aboutme">
    <path d="M474.02018,702.1619H460.09205a6.68516,6.68516,0,0,1-6.67764-6.6775V579.39881a6.68516,6.68516,0,0,1,6.67764-6.6775h13.92813a6.68516,6.68516,0,0,1,6.67764,6.6775V695.4844A6.68516,6.68516,0,0,1,474.02018,702.1619Z" transform="translate(-230.71108 -196.85292)" fill="#6c63ff"></path>
    <path d="M439.86656,702.1619H425.93815a6.68516,6.68516,0,0,1-6.67763-6.6775V579.39881a6.68516,6.68516,0,0,1,6.67763-6.6775h13.92841a6.685,6.685,0,0,1,6.67749,6.6775V695.4844A6.685,6.685,0,0,1,439.86656,702.1619Z" transform="translate(-230.71108 -196.85292)" fill="#6c63ff"></path>
    <circle cx="223.25596" cy="174.37148" r="55.45452" fill="#6c63ff"></circle>
    <path d="M485.30494,389.63c3.50718-.7945,7.872-1.78382,10.76527-4.92163a8.84311,8.84311,0,0,0,2.13407-7.15228,5.94869,5.94869,0,0,0-2.93123-4.401c-2.06076-1.14347-4.70871-.98411-7.32646.38154l-1.27694-21.61067-2.17088.1279L486,377.45988l1.6051-1.15859c1.861-1.3428,4.57564-2.37529,6.61255-1.245a3.82216,3.82216,0,0,1,1.83974,2.84585,6.68374,6.68374,0,0,1-1.5861,5.33172c-2.25164,2.44174-5.70106,3.38069-9.647,4.27537Z" transform="translate(-230.71108 -196.85292)" fill="#2f2e41"></path>
    <rect x="497.58092" y="350.52042" width="11.71244" height="2.17469" transform="translate(-289.30294 -92.63224) rotate(-11.17345)" fill="#2f2e41"></rect>
    <rect x="461.312" y="357.6844" width="11.71244" height="2.17469" transform="matrix(0.98105, -0.19378, 0.19378, 0.98105, -291.37865, -99.52463)" fill="#2f2e41"></rect>
    <path d="M467.60645,600.72363H402.95264a7.57572,7.57572,0,0,1-7.56739-7.56738V496.13379a56.31349,56.31349,0,0,1,56.24952-56.24951,57.90005,57.90005,0,0,1,57.834,57.83447V558.8623A41.90944,41.90944,0,0,1,467.60645,600.72363Z" transform="translate(-230.71108 -196.85292)" fill="#2f2e41"></path>
    <path d="M443.57086,346.81061c1.79017-5.36665,8.00837-7.43687,13.18105-7.59768,7.27136-.226,14.37052,2.35621,21.66459,1.20212,13.23169-2.09356,21.49166-14.84562,24.06616-27.05337,1.71715-8.14235,1.565-16.48929,1.3711-24.76321a1.65681,1.65681,0,0,0-2.70747-1.34272,26.49,26.49,0,0,0-10.70567,15.21048l3.16812.6553,1.66626-14.45119a1.653,1.653,0,0,0-1.09227-1.66176c-4.96317-1.7287-9.10075,2.17251-11.80128,5.86327-1.39853,1.91135-2.74038,3.99383-4.81852,5.23828a11.92114,11.92114,0,0,1-7.091,1.37328c-5.05618-.36551-9.84987-2.27608-14.803-3.22195a53.93221,53.93221,0,0,0-13.80183-.76734,58.03033,58.03033,0,0,0-25.82971,8.14935c-7.83772,4.72253-15.01313,11.47187-19.17288,19.7123-2.375,4.70483-3.66444,10.12022-2.35977,15.33526a15.5264,15.5264,0,0,0,8.82225,10.83069c1.94174.81291,2.998-2.2749,1.06939-3.08232-3.67373-1.538-6.005-5.1442-6.821-8.9415-.93261-4.33984.20925-8.83012,2.19762-12.71689,3.8722-7.56922,10.50017-13.86375,17.72467-18.2197a55.74589,55.74589,0,0,1,24.18981-7.80683,51.1496,51.1496,0,0,1,12.53762.54594c4.64544.77415,9.08931,2.43677,13.74509,3.17083,5.10944.80558,10.41154.097,14.06819-3.87894,2.68951-2.92437,6.01273-10.26463,11.075-8.50141l-1.09227-1.66176-1.66625,14.45118c-.20849,1.80814,2.70092,2.46194,3.16812.6553A23.79663,23.79663,0,0,1,503.30731,289.7l-2.70747-1.34272c.32148,13.71907.60932,28.88172-8.53495,40.12348-3.92287,4.82267-9.44351,8.35083-15.71751,8.913-7.06771.63335-14.00617-1.92522-21.08313-1.33433-6.11954.511-12.70347,3.46952-14.77571,9.68176-.66526,1.99436,2.41737,3.0628,3.08232,1.06938Z" transform="translate(-230.71108 -196.85292)" fill="#2f2e41"></path>
    <path d="M471.44378,395.56465c-.0084.1564-.01942.31331-.03564.47058a10.08992,10.08992,0,0,1-3.6708,6.8501l-11.5063,9.42306a10.16667,10.16667,0,0,1-14.289-1.42265l-28.88961-35.27619a10.16836,10.16836,0,0,1,1.42329-14.28895l11.50627-9.42241a10.1502,10.1502,0,0,1,14.2864,1.42251l28.8896,35.27619A10.08293,10.08293,0,0,1,471.44378,395.56465Z" transform="translate(-230.71108 -196.85292)" fill="#2f2e41"></path>
    <circle cx="204.0662" cy="177.38869" r="3.60527" fill="#fff"></circle>
    <path d="M459.67624,378.644l-.00286.02322a6.26538,6.26538,0,0,1,4.917,6.88128L452.27249,486.46813a12.74791,12.74791,0,0,1-25.40055-1.71342,12.95474,12.95474,0,0,1,.09434-1.37521l12.318-100.91966a6.25885,6.25885,0,0,1,6.97071-5.45436Z" transform="translate(-230.71108 -196.85292)" fill="#6c63ff"></path>
    <circle cx="639.38101" cy="72.99986" r="46.19684" fill="#e4e4e4"></circle>
    <path d="M875.493,289.24543c-2.99455-.08315-6.72144-.18709-9.5926-2.28446a7.36675,7.36675,0,0,1-2.89869-5.50082,4.95559,4.95559,0,0,1,1.68514-4.07,6.39516,6.39516,0,0,1,6.04927-.87089l-2.445-17.86783,1.79484-.24592,2.87436,21.00592-1.49883-.68777c-1.73766-.797-4.123-1.2026-5.6052.05a3.1841,3.1841,0,0,0-1.04415,2.62281,5.568,5.568,0,0,0,2.157,4.1014c2.23437,1.63207,5.205,1.8426,8.57434,1.93681Z" transform="translate(-230.71108 -196.85292)" fill="#2f2e41"></path>
    <rect x="618.9466" y="63.33947" width="9.75714" height="1.81164" fill="#2f2e41"></rect>
    <rect x="649.74449" y="63.33947" width="9.75714" height="1.81164" fill="#2f2e41"></rect>
    <path d="M870.09215,342.85292a73,73,0,1,1,73-73A73.08254,73.08254,0,0,1,870.09215,342.85292Zm0-144a71,71,0,1,0,71,71A71.08041,71.08041,0,0,0,870.09215,198.85292Z" transform="translate(-230.71108 -196.85292)" fill="#3f3d56"></path>
    <circle cx="575.39603" cy="251.7334" r="36.81818" fill="#e4e4e4"></circle>
    <circle cx="701.75967" cy="251.7334" r="36.81818" fill="#cacaca"></circle>
    <path d="M823.992,455.93886a4.66953,4.66953,0,0,1-4.85352-4.42627c-.00756-.09278-.01367-.18555-.01855-.27881H793.0941c-.00488.09326-.011.186-.01855.27881a4.67534,4.67534,0,0,1-5.06983,4.42187,4.93639,4.93639,0,0,1-4.89868-5.00732v-.19336a9.51081,9.51081,0,0,1,9.5-9.5h27a9.51081,9.51081,0,0,1,9.5,9.5v.19336a4.93639,4.93639,0,0,1-4.89868,5.00732C824.13658,455.93739,824.06432,455.93886,823.992,455.93886Z" transform="translate(-230.71108 -196.85292)" fill="#fff"></path>
    <path d="M940.93321,468.97938a9.62146,9.62146,0,0,1-1.83789-.17822,9.43833,9.43833,0,0,1-6.06079-4.0166l-15.08545-22.39307a9.51078,9.51078,0,0,1,2.57129-13.18652l.16064-.1084a4.93841,4.93841,0,0,1,6.88916,1.26563,4.69034,4.69034,0,0,1-.83447,6.67529q-.10876.08716-.2207.1709l14.541,21.585q.11976-.07177.24122-.14014a4.69166,4.69166,0,0,1,6.5,1.73389,4.936,4.936,0,0,1-1.41553,6.86035l-.16113.1084A9.43147,9.43147,0,0,1,940.93321,468.97938Z" transform="translate(-230.71108 -196.85292)" fill="#fff"></path>
    <path d="M689.19578,703.14708h-457.294a1.19069,1.19069,0,0,1,0-2.38137h457.294a1.19069,1.19069,0,0,1,0,2.38137Z" transform="translate(-230.71108 -196.85292)" fill="#3f3d56"></path>
  </symbol>
</svg>