<svg aria-hidden="true" style="position: absolute; width: 0; height: 0; overflow: hidden;" version="1.1" xmlns="http://www.w3.org/2000/svg" xmlns:xlink="http://www.w3.org/1999/xlink">
<defs>

<symbol id="icon-github" viewBox="0 0 32 32">
<path d="M16 0.395c-8.836 0-16 7.163-16 16 0 7.069 4.585 13.067 10.942 15.182 0.8 0.148 1.094-0.347 1.094-0.77 0-0.381-0.015-1.642-0.022-2.979-4.452 0.968-5.391-1.888-5.391-1.888-0.728-1.849-1.776-2.341-1.776-2.341-1.452-0.993 0.11-0.973 0.11-0.973 1.606 0.113 2.452 1.649 2.452 1.649 1.427 2.446 3.743 1.739 4.656 1.33 0.143-1.034 0.558-1.74 1.016-2.14-3.554-0.404-7.29-1.777-7.29-7.907 0-1.747 0.625-3.174 1.649-4.295-0.166-0.403-0.714-2.030 0.155-4.234 0 0 1.344-0.43 4.401 1.64 1.276-0.355 2.645-0.532 4.005-0.539 1.359 0.006 2.729 0.184 4.008 0.539 3.054-2.070 4.395-1.64 4.395-1.64 0.871 2.204 0.323 3.831 0.157 4.234 1.026 1.12 1.647 2.548 1.647 4.295 0 6.145-3.743 7.498-7.306 7.895 0.574 0.497 1.085 1.47 1.085 2.963 0 2.141-0.019 3.864-0.019 4.391 0 0.426 0.288 0.925 1.099 0.768 6.354-2.118 10.933-8.113 10.933-15.18 0-8.837-7.164-16-16-16z"></path>
</symbol>
<symbol id="icon-linkedin" viewBox="0 0 32 32">
<path d="M12 12h5.535v2.837h0.079c0.77-1.381 2.655-2.837 5.464-2.837 5.842 0 6.922 3.637 6.922 8.367v9.633h-5.769v-8.54c0-2.037-0.042-4.657-3.001-4.657-3.005 0-3.463 2.218-3.463 4.509v8.688h-5.767v-18z"></path>
<path d="M2 12h6v18h-6v-18z"></path>
<path d="M8 7c0 1.657-1.343 3-3 3s-3-1.343-3-3c0-1.657 1.343-3 3-3s3 1.343 3 3z"></path>
</symbol>
<symbol id="icon-dev" viewBox="0 0 32 32">
<path d="M9.893 13.4c-0.24-0.213-0.613-0.307-1.12-0.307h-0.773l0.027 3.253 0.053 3.267 0.747-0.027c0.547 0 0.84-0.093 1.107-0.347 0.32-0.32 0.347-0.48 0.347-2.933 0-2.547-0.027-2.613-0.387-2.907zM0 6.587v18.827h32v-18.827zM11.413 20.4c-0.587 0.773-1.413 1.027-3.373 1.027h-1.76v-10.053h1.867c2.227 0 2.88 0.24 3.467 1.2 0.36 0.573 0.387 0.8 0.427 3.427 0.067 2.973-0.027 3.64-0.627 4.4zM18.2 13.107h-3.293v2.36h2.027v1.707l-0.96 0.053-1 0.040v2.36l1.627 0.040 1.6 0.053v1.707h-2.133c-2.040 0-2.133-0.013-2.493-0.4l-0.4-0.373v-4.213c0-4.027 0.013-4.24 0.333-4.64 0.307-0.413 0.333-0.413 2.507-0.413h2.187zM24.44 20.373c-0.227 0.573-0.853 1.053-1.333 1.053-0.24 0-0.6-0.2-0.893-0.52-0.427-0.427-0.6-0.84-1.093-2.773l-1.2-4.52-0.6-2.227h1.013c0.533 0 1 0.027 1 0.067 0 0.080 1.547 6.053 1.68 6.44 0.053 0.2 0.427-0.933 0.973-3.067l0.88-3.36 0.987-0.053c0.533-0.027 0.973 0 0.973 0.053 0 0.187-2.227 8.507-2.387 8.907z"></path>
</symbol>
</defs>
</svg>
