<?xml version="1.0" encoding="UTF-8"?>
<!DOCTYPE svg PUBLIC "-//W3C//DTD SVG 1.1//EN" "http://www.w3.org/Graphics/SVG/1.1/DTD/svg11.dtd">
<svg xmlns="http://www.w3.org/2000/svg" version="1.1" width="442px" height="132px" style="shape-rendering:geometricPrecision; text-rendering:geometricPrecision; image-rendering:optimizeQuality; fill-rule:evenodd; clip-rule:evenodd" xmlns:xlink="http://www.w3.org/1999/xlink">
<g><path style="opacity:1" fill="#fbfbff" d="M -0.5,-0.5 C 146.833,-0.5 294.167,-0.5 441.5,-0.5C 441.5,43.5 441.5,87.5 441.5,131.5C 294.167,131.5 146.833,131.5 -0.5,131.5C -0.5,87.5 -0.5,43.5 -0.5,-0.5 Z"/></g>
<g><path style="opacity:1" fill="#5f56ff" d="M 89.5,9.5 C 67.4932,8.19023 45.4932,8.19023 23.5,9.5C 24.2625,8.73209 25.2625,8.23209 26.5,8C 46.1667,7.33333 65.8333,7.33333 85.5,8C 87.0581,8.21003 88.3915,8.71003 89.5,9.5 Z"/></g>
<g><path style="opacity:1" fill="#5b55ff" d="M 206.5,8.5 C 180.474,8.20306 154.474,8.53639 128.5,9.5C 129.263,8.73209 130.263,8.23209 131.5,8C 156.67,7.17001 181.67,7.33668 206.5,8.5 Z"/></g>
<g><path style="opacity:1" fill="#675dff" d="M 320.5,15.5 C 320.167,15.5 319.833,15.5 319.5,15.5C 319.5,13.1667 319.5,10.8333 319.5,8.5C 308.136,8.25664 296.802,8.58998 285.5,9.5C 286.263,8.73209 287.263,8.23209 288.5,8C 299.161,7.50016 309.828,7.3335 320.5,7.5C 320.5,10.1667 320.5,12.8333 320.5,15.5 Z"/></g>
<g><path style="opacity:1" fill="#5c56ff" d="M 425.5,15.5 C 425.167,15.5 424.833,15.5 424.5,15.5C 424.5,13.1667 424.5,10.8333 424.5,8.5C 398.808,8.20356 373.141,8.53689 347.5,9.5C 348.263,8.73209 349.263,8.23209 350.5,8C 375.498,7.50003 400.498,7.33336 425.5,7.5C 425.5,10.1667 425.5,12.8333 425.5,15.5 Z"/></g>
<g><path style="opacity:1" fill="#2007ff" d="M 89.5,9.5 C 95.5841,11.7556 99.4175,16.0889 101,22.5C 101.5,54.8316 101.667,87.1649 101.5,119.5C 99.5,119.5 97.5,119.5 95.5,119.5C 95.8315,87.9956 95.4982,56.6622 94.5,25.5C 92.9034,19.8982 89.2367,16.8982 83.5,16.5C 65.6714,15.338 47.6714,15.1713 29.5,16C 27.6803,16.2004 26.347,17.0337 25.5,18.5C 23.1667,18.8333 21.8333,20.1667 21.5,22.5C 20.7321,23.2625 20.2321,24.2625 20,25.5C 19.5,56.8316 19.3334,88.1649 19.5,119.5C 17.1667,119.5 14.8333,119.5 12.5,119.5C 12.3334,87.4983 12.5,55.4983 13,23.5C 14.128,21.6547 14.628,19.6547 14.5,17.5C 16.2329,13.4351 19.2329,10.7684 23.5,9.5C 45.4932,8.19023 67.4932,8.19023 89.5,9.5 Z"/></g>
<g><path style="opacity:1" fill="#220aff" d="M 206.5,8.5 C 206.5,10.5 206.5,12.5 206.5,14.5C 182.164,14.3334 157.831,14.5 133.5,15C 132.584,15.2784 131.918,15.7784 131.5,16.5C 128.178,17.6582 126.012,19.9916 125,23.5C 124.333,49.5 124.333,75.5 125,101.5C 125.831,106.681 128.664,110.181 133.5,112C 154.497,112.5 175.497,112.667 196.5,112.5C 197.496,112.586 198.329,112.252 199,111.5C 199.167,103.167 199.333,94.8333 199.5,86.5C 199.498,77.8055 198.831,69.4722 197.5,61.5C 185.58,60.5214 173.58,60.1881 161.5,60.5C 161.5,58.1667 161.5,55.8333 161.5,53.5C 174.837,53.3334 188.171,53.5001 201.5,54C 203.329,54.2735 204.829,55.1068 206,56.5C 206.667,76.1667 206.667,95.8333 206,115.5C 205.252,117.751 203.752,119.084 201.5,119.5C 177.141,119.794 152.807,119.461 128.5,118.5C 123.094,116.759 119.761,113.093 118.5,107.5C 117.551,79.185 117.218,50.8516 117.5,22.5C 118.65,16.0179 122.317,11.6845 128.5,9.5C 154.474,8.53639 180.474,8.20306 206.5,8.5 Z"/></g>
<g><path style="opacity:1" fill="#2711ff" d="M 264.5,17.5 C 265.95,28.5873 266.95,39.5873 267.5,50.5C 269.611,51.9681 271.444,51.6348 273,49.5C 273.076,39.4268 273.742,29.4268 275,19.5C 277.075,14.5902 280.575,11.2569 285.5,9.5C 296.802,8.58998 308.136,8.25664 319.5,8.5C 319.5,10.8333 319.5,13.1667 319.5,15.5C 309.828,15.3335 300.161,15.5002 290.5,16C 289.584,16.2784 288.918,16.7784 288.5,17.5C 285.178,18.6582 283.012,20.9916 282,24.5C 282.115,36.4137 281.282,48.0804 279.5,59.5C 273.894,60.4069 268.227,60.7402 262.5,60.5C 261.828,59.7326 260.995,59.0659 260,58.5C 259.667,47.1667 259.333,35.8333 259,24.5C 257.181,19.6643 253.681,16.831 248.5,16C 239.506,15.5002 230.506,15.3336 221.5,15.5C 221.5,12.8333 221.5,10.1667 221.5,7.5C 231.172,7.33353 240.839,7.5002 250.5,8C 253.993,8.94186 257.326,10.2752 260.5,12C 262.464,13.451 263.797,15.2843 264.5,17.5 Z"/></g>
<g><path style="opacity:1" fill="#2711ff" d="M 424.5,15.5 C 400.498,15.3334 376.498,15.5 352.5,16C 351.584,16.2784 350.918,16.7784 350.5,17.5C 346.743,18.7671 344.576,21.4338 344,25.5C 343.333,35.8333 343.333,46.1667 344,56.5C 344.644,62.3096 347.811,65.643 353.5,66.5C 371.372,67.1921 389.372,67.8588 407.5,68.5C 408.122,69.6266 408.955,70.6266 410,71.5C 410.667,81.1667 410.667,90.8333 410,100.5C 409.535,101.931 408.701,103.097 407.5,104C 383.59,105.48 359.59,105.98 335.5,105.5C 335.5,103.167 335.5,100.833 335.5,98.5C 357.169,98.6666 378.836,98.5 400.5,98C 401.126,97.2496 401.626,96.4162 402,95.5C 402.79,89.0853 402.624,82.752 401.5,76.5C 384.532,74.514 367.199,73.8473 349.5,74.5C 346.231,74.1156 343.397,72.7823 341,70.5C 338.566,67.2046 336.899,63.538 336,59.5C 335.333,47.1667 335.333,34.8333 336,22.5C 337.546,16.1221 341.379,11.7888 347.5,9.5C 373.141,8.53689 398.808,8.20356 424.5,8.5C 424.5,10.8333 424.5,13.1667 424.5,15.5 Z"/></g>
<g><path style="opacity:1" fill="#bdc0ff" d="M 206.5,14.5 C 181.647,15.204 156.647,15.8707 131.5,16.5C 131.918,15.7784 132.584,15.2784 133.5,15C 157.831,14.5 182.164,14.3334 206.5,14.5 Z"/></g>
<g><path style="opacity:1" fill="#bec0ff" d="M 83.5,16.5 C 65.8302,16.3334 48.1635,16.5001 30.5,17C 28.8455,17.6077 27.1789,18.1077 25.5,18.5C 26.347,17.0337 27.6803,16.2004 29.5,16C 47.6714,15.1713 65.6714,15.338 83.5,16.5 Z"/></g>
<g><path style="opacity:1" fill="#bebfff" d="M 319.5,15.5 C 319.833,15.5 320.167,15.5 320.5,15.5C 309.983,16.2604 299.317,16.9271 288.5,17.5C 288.918,16.7784 289.584,16.2784 290.5,16C 300.161,15.5002 309.828,15.3335 319.5,15.5 Z"/></g>
<g><path style="opacity:1" fill="#bfc2ff" d="M 424.5,15.5 C 424.833,15.5 425.167,15.5 425.5,15.5C 400.647,16.204 375.647,16.8707 350.5,17.5C 350.918,16.7784 351.584,16.2784 352.5,16C 376.498,15.5 400.498,15.3334 424.5,15.5 Z"/></g>
<g><path style="opacity:1" fill="#5048ff" d="M 206.5,23.5 C 182.141,23.2057 157.807,23.539 133.5,24.5C 133.918,23.7784 134.584,23.2784 135.5,23C 159.337,22.1702 183.004,22.3369 206.5,23.5 Z"/></g>
<g><path style="opacity:1" fill="#5248ff" d="M 82.5,24.5 C 64.4724,24.2206 46.4724,24.5539 28.5,25.5C 28.9175,24.7784 29.5842,24.2784 30.5,24C 48.0049,23.1715 65.3382,23.3382 82.5,24.5 Z"/></g>
<g><path style="opacity:1" fill="#2510ff" d="M 206.5,23.5 C 206.5,25.8333 206.5,28.1667 206.5,30.5C 184.497,30.3334 162.497,30.5 140.5,31C 139.944,31.3826 139.611,31.8826 139.5,32.5C 138.337,53.6627 138.171,74.996 139,96.5C 139.5,97 140,97.5 140.5,98C 154.167,98.6667 167.833,98.6667 181.5,98C 182,97.5 182.5,97 183,96.5C 183.792,89.7526 183.626,83.0859 182.5,76.5C 176.25,74.5411 169.584,73.8745 162.5,74.5C 162.5,72.5 162.5,70.5 162.5,68.5C 170.5,68.5 178.5,68.5 186.5,68.5C 187.167,68.5 187.833,68.5 188.5,68.5C 189.5,68.8333 190.167,69.5 190.5,70.5C 191.812,81.1367 191.812,91.8033 190.5,102.5C 189.317,103.504 187.984,104.338 186.5,105C 169.5,105.667 152.5,105.667 135.5,105C 134.667,104.167 133.833,103.333 133,102.5C 131.851,89.5912 131.351,76.5912 131.5,63.5C 131.667,51.1667 131.833,38.8333 132,26.5C 132.278,25.5842 132.778,24.9175 133.5,24.5C 157.807,23.539 182.141,23.2057 206.5,23.5 Z"/></g>
<g><path style="opacity:1" fill="#5a4eff" d="M 320.5,30.5 C 320.167,30.5 319.833,30.5 319.5,30.5C 319.5,28.5 319.5,26.5 319.5,24.5C 309.801,24.2747 300.134,24.608 290.5,25.5C 290.918,24.7784 291.584,24.2784 292.5,24C 301.827,23.5002 311.161,23.3335 320.5,23.5C 320.5,25.8333 320.5,28.1667 320.5,30.5 Z"/></g>
<g><path style="opacity:1" fill="#534aff" d="M 424.5,30.5 C 424.5,28.5 424.5,26.5 424.5,24.5C 400.455,24.1864 376.455,24.5197 352.5,25.5C 352.611,24.8826 352.944,24.3826 353.5,24C 377.498,23.5 401.498,23.3334 425.5,23.5C 425.802,26.0593 425.468,28.3926 424.5,30.5 Z"/></g>
<g><path style="opacity:1" fill="#1e04ff" d="M 82.5,24.5 C 84.0174,24.5106 85.1841,25.1772 86,26.5C 86.5,57.4982 86.6666,88.4982 86.5,119.5C 84.5,119.5 82.5,119.5 80.5,119.5C 80.8314,90.3285 80.498,61.3285 79.5,32.5C 78.7109,32.2172 78.0442,31.7172 77.5,31C 63.8333,30.3333 50.1667,30.3333 36.5,31C 36,31.5 35.5,32 35,32.5C 34.5,61.4981 34.3334,90.4981 34.5,119.5C 32.1667,119.5 29.8333,119.5 27.5,119.5C 27.1966,88.1419 27.5299,56.8086 28.5,25.5C 46.4724,24.5539 64.4724,24.2206 82.5,24.5 Z"/></g>
<g><path style="opacity:1" fill="#2611ff" d="M 247.5,24.5 C 249.411,25.075 251.078,26.075 252.5,27.5C 252.814,52.5447 252.481,77.5447 251.5,102.5C 250.317,103.504 248.984,104.338 247.5,105C 238.84,105.5 230.173,105.666 221.5,105.5C 221.5,103.167 221.5,100.833 221.5,98.5C 228.508,98.6663 235.508,98.4996 242.5,98C 243,97.5 243.5,97 244,96.5C 244.667,75.1667 244.667,53.8333 244,32.5C 243.283,31.9558 242.783,31.2891 242.5,30.5C 236.021,29.5093 229.354,29.176 222.5,29.5C 222.5,27.8333 222.5,26.1667 222.5,24.5C 230.833,24.5 239.167,24.5 247.5,24.5 Z"/></g>
<g><path style="opacity:1" fill="#240eff" d="M 319.5,30.5 C 312.492,30.3337 305.492,30.5004 298.5,31C 297.944,31.3826 297.611,31.8826 297.5,32.5C 296.337,53.6627 296.171,74.996 297,96.5C 297.5,97 298,97.5 298.5,98C 305.492,98.4996 312.492,98.6663 319.5,98.5C 319.5,100.5 319.5,102.5 319.5,104.5C 310.5,104.5 301.5,104.5 292.5,104.5C 290.973,104.573 289.973,103.906 289.5,102.5C 288.519,77.5447 288.186,52.5447 288.5,27.5C 289.167,26.8333 289.833,26.1667 290.5,25.5C 300.134,24.608 309.801,24.2747 319.5,24.5C 319.5,26.5 319.5,28.5 319.5,30.5 Z"/></g>
<g><path style="opacity:1" fill="#2711ff" d="M 424.5,30.5 C 403.164,30.3334 381.831,30.5 360.5,31C 360,31.5 359.5,32 359,32.5C 358.333,38.5 358.333,44.5 359,50.5C 359.383,51.056 359.883,51.3893 360.5,51.5C 376.328,52.3314 392.328,52.8314 408.5,53C 410.154,53.6077 411.821,54.1077 413.5,54.5C 418.248,56.913 421.581,60.5796 423.5,65.5C 424.421,78.1365 424.754,90.8032 424.5,103.5C 423.434,113.067 418.101,118.567 408.5,120C 384.169,120.5 359.836,120.667 335.5,120.5C 335.5,117.833 335.5,115.167 335.5,112.5C 359.169,112.667 382.836,112.5 406.5,112C 407.737,111.768 408.737,111.268 409.5,110.5C 413.584,108.908 416.084,105.908 417,101.5C 417.667,90.8333 417.667,80.1667 417,69.5C 415.283,64.4487 411.783,61.6154 406.5,61C 388.833,60.6667 371.167,60.3333 353.5,60C 352.299,59.0975 351.465,57.9308 351,56.5C 350.333,46.5 350.333,36.5 351,26.5C 351.383,25.944 351.883,25.6107 352.5,25.5C 376.455,24.5197 400.455,24.1864 424.5,24.5C 424.5,26.5 424.5,28.5 424.5,30.5 Z"/></g>
<g><path style="opacity:1" fill="#5e57ff" d="M 14.5,17.5 C 14.628,19.6547 14.128,21.6547 13,23.5C 12.5,55.4983 12.3334,87.4983 12.5,119.5C 14.8333,119.5 17.1667,119.5 19.5,119.5C 19.5,119.833 19.5,120.167 19.5,120.5C 16.8333,120.5 14.1667,120.5 11.5,120.5C 11.3334,87.8316 11.5,55.165 12,22.5C 12.3736,20.5087 13.207,18.842 14.5,17.5 Z"/></g>
<g><path style="opacity:1" fill="#4e43ff" d="M 117.5,22.5 C 117.218,50.8516 117.551,79.185 118.5,107.5C 117.71,106.391 117.21,105.058 117,103.5C 116.17,76.3302 116.336,49.3302 117.5,22.5 Z"/></g>
<g><path style="opacity:1" fill="#3d2fff" d="M 247.5,24.5 C 239.167,24.5 230.833,24.5 222.5,24.5C 222.5,26.1667 222.5,27.8333 222.5,29.5C 229.354,29.176 236.021,29.5093 242.5,30.5C 235.5,30.5 228.5,30.5 221.5,30.5C 221.5,28.1667 221.5,25.8333 221.5,23.5C 230.349,23.1736 239.016,23.507 247.5,24.5 Z"/></g>
<g><path style="opacity:1" fill="#e0e3ff" d="M 252.5,27.5 C 253.663,51.9966 253.83,76.6632 253,101.5C 252.617,102.056 252.117,102.389 251.5,102.5C 252.481,77.5447 252.814,52.5447 252.5,27.5 Z"/></g>
<g><path style="opacity:1" fill="#4b3bff" d="M 264.5,17.5 C 265.793,18.842 266.626,20.5087 267,22.5C 267.5,31.8274 267.666,41.1607 267.5,50.5C 266.95,39.5873 265.95,28.5873 264.5,17.5 Z"/></g>
<g><path style="opacity:1" fill="#b9bbff" d="M 21.5,22.5 C 20.8616,55.3132 20.1949,87.9799 19.5,120.5C 19.5,120.167 19.5,119.833 19.5,119.5C 19.3334,88.1649 19.5,56.8316 20,25.5C 20.2321,24.2625 20.7321,23.2625 21.5,22.5 Z"/></g>
<g><path style="opacity:1" fill="#5952ff" d="M 28.5,25.5 C 27.5299,56.8086 27.1966,88.1419 27.5,119.5C 29.8333,119.5 32.1667,119.5 34.5,119.5C 32.0521,120.473 29.3854,120.806 26.5,120.5C 26.3334,89.4982 26.5,58.4982 27,27.5C 27.2784,26.5842 27.7784,25.9175 28.5,25.5 Z"/></g>
<g><path style="opacity:1" fill="#c8ccff" d="M 206.5,30.5 C 184.294,31.1871 161.961,31.8537 139.5,32.5C 139.611,31.8826 139.944,31.3826 140.5,31C 162.497,30.5 184.497,30.3334 206.5,30.5 Z"/></g>
<g><path style="opacity:1" fill="#c9ccff" d="M 319.5,30.5 C 319.833,30.5 320.167,30.5 320.5,30.5C 312.964,31.2288 305.298,31.8955 297.5,32.5C 297.611,31.8826 297.944,31.3826 298.5,31C 305.492,30.5004 312.492,30.3337 319.5,30.5 Z"/></g>
<g><path style="opacity:1" fill="#4c45ff" d="M 94.5,25.5 C 95.4982,56.6622 95.8315,87.9956 95.5,119.5C 97.5,119.5 99.5,119.5 101.5,119.5C 99.3926,120.468 97.0593,120.802 94.5,120.5C 94.5,88.8333 94.5,57.1667 94.5,25.5 Z"/></g>
<g><path style="opacity:1" fill="#d0d3ff" d="M 288.5,27.5 C 288.186,52.5447 288.519,77.5447 289.5,102.5C 288.883,102.389 288.383,102.056 288,101.5C 287.17,76.6632 287.337,51.9966 288.5,27.5 Z"/></g>
<g><path style="opacity:1" fill="#4f47ff" d="M 79.5,32.5 C 80.498,61.3285 80.8314,90.3285 80.5,119.5C 82.5,119.5 84.5,119.5 86.5,119.5C 84.3926,120.468 82.0593,120.802 79.5,120.5C 79.5,91.1667 79.5,61.8333 79.5,32.5 Z"/></g>
<g><path style="opacity:1" fill="#e0e2ff" d="M 360.5,51.5 C 376.837,51.3334 393.17,51.5001 409.5,52C 411.32,52.2004 412.653,53.0337 413.5,54.5C 411.821,54.1077 410.154,53.6077 408.5,53C 392.328,52.8314 376.328,52.3314 360.5,51.5 Z"/></g>
<g><path style="opacity:1" fill="#c9cbff" d="M 279.5,59.5 C 279.389,60.1174 279.056,60.6174 278.5,61C 272.984,61.8174 267.65,61.6507 262.5,60.5C 268.227,60.7402 273.894,60.4069 279.5,59.5 Z"/></g>
<g><path style="opacity:1" fill="#3c31ff" d="M 197.5,61.5 C 198.831,69.4722 199.498,77.8055 199.5,86.5C 199.333,94.8333 199.167,103.167 199,111.5C 198.329,112.252 197.496,112.586 196.5,112.5C 196.783,111.711 197.283,111.044 198,110.5C 198.817,94.0926 198.651,77.7593 197.5,61.5 Z"/></g>
<g><path style="opacity:1" fill="#d8d9ff" d="M 161.5,67.5 C 169.99,66.3431 178.657,66.1764 187.5,67C 188.056,67.3826 188.389,67.8826 188.5,68.5C 187.833,68.5 187.167,68.5 186.5,68.5C 178.35,67.5073 170.017,67.1739 161.5,67.5 Z"/></g>
<g><path style="opacity:1" fill="#d8daff" d="M 353.5,66.5 C 371.17,66.3334 388.836,66.5001 406.5,67C 407.056,67.3826 407.389,67.8826 407.5,68.5C 389.372,67.8588 371.372,67.1921 353.5,66.5 Z"/></g>
<g><path style="opacity:1" fill="#2812ff" d="M 279.5,68.5 C 280.124,79.6291 280.791,90.6291 281.5,101.5C 282.448,106.625 285.448,110.125 290.5,112C 300.161,112.5 309.828,112.666 319.5,112.5C 319.5,114.833 319.5,117.167 319.5,119.5C 308.136,119.743 296.802,119.41 285.5,118.5C 280.134,116.468 276.468,112.801 274.5,107.5C 273.938,97.6823 273.271,88.0156 272.5,78.5C 271.15,75.894 269.65,75.894 268,78.5C 267.667,86.8333 267.333,95.1667 267,103.5C 265.509,112.991 260.009,118.491 250.5,120C 240.839,120.5 231.172,120.666 221.5,120.5C 221.5,117.833 221.5,115.167 221.5,112.5C 230.506,112.666 239.506,112.5 248.5,112C 254.333,110.833 257.833,107.333 259,101.5C 259.333,90.8333 259.667,80.1667 260,69.5C 260.5,69 261,68.5 261.5,68C 267.681,67.1808 273.681,67.3475 279.5,68.5 Z"/></g>
<g><path style="opacity:1" fill="#4a3eff" d="M 279.5,68.5 C 280.117,68.6107 280.617,68.944 281,69.5C 281.5,80.1615 281.667,90.8281 281.5,101.5C 280.791,90.6291 280.124,79.6291 279.5,68.5 Z"/></g>
<g><path style="opacity:1" fill="#3e32ff" d="M 161.5,67.5 C 170.017,67.1739 178.35,67.5073 186.5,68.5C 178.5,68.5 170.5,68.5 162.5,68.5C 162.5,70.5 162.5,72.5 162.5,74.5C 169.584,73.8745 176.25,74.5411 182.5,76.5C 175.588,75.5379 168.588,75.2045 161.5,75.5C 161.5,72.8333 161.5,70.1667 161.5,67.5 Z"/></g>
<g><path style="opacity:1" fill="#d6d8ff" d="M 190.5,70.5 C 191.828,75.2876 192.495,80.4543 192.5,86C 192.333,91.1667 192.167,96.3333 192,101.5C 191.617,102.056 191.117,102.389 190.5,102.5C 191.812,91.8033 191.812,81.1367 190.5,70.5 Z"/></g>
<g><path style="opacity:1" fill="#4336ff" d="M 349.5,74.5 C 367.199,73.8473 384.532,74.514 401.5,76.5C 384.069,75.8463 366.735,75.1797 349.5,74.5 Z"/></g>
<g><path style="opacity:1" fill="#6a60ff" d="M 423.5,65.5 C 424.268,66.2625 424.768,67.2625 425,68.5C 425.826,80.3407 425.659,92.0073 424.5,103.5C 424.754,90.8032 424.421,78.1365 423.5,65.5 Z"/></g>
<g><path style="opacity:1" fill="#d2d4ff" d="M 272.5,78.5 C 273.271,88.0156 273.938,97.6823 274.5,107.5C 273.732,106.737 273.232,105.737 273,104.5C 272.5,95.8397 272.334,87.1731 272.5,78.5 Z"/></g>
<g><path style="opacity:1" fill="#5a4fff" d="M 319.5,98.5 C 320.468,100.607 320.802,102.941 320.5,105.5C 310.985,105.827 301.652,105.494 292.5,104.5C 301.5,104.5 310.5,104.5 319.5,104.5C 319.5,102.5 319.5,100.5 319.5,98.5 Z"/></g>
<g><path style="opacity:1" fill="#c2c5ff" d="M 409.5,110.5 C 408.737,111.268 407.737,111.768 406.5,112C 382.836,112.5 359.169,112.667 335.5,112.5C 360.02,111.795 384.686,111.129 409.5,110.5 Z"/></g>
<g><path style="opacity:1" fill="#5c54ff" d="M 128.5,118.5 C 152.807,119.461 177.141,119.794 201.5,119.5C 178.337,120.663 155.004,120.83 131.5,120C 130.263,119.768 129.263,119.268 128.5,118.5 Z"/></g>
<g><path style="opacity:1" fill="#685dff" d="M 319.5,112.5 C 320.473,114.948 320.806,117.615 320.5,120.5C 309.828,120.667 299.161,120.5 288.5,120C 287.263,119.768 286.263,119.268 285.5,118.5C 296.802,119.41 308.136,119.743 319.5,119.5C 319.5,117.167 319.5,114.833 319.5,112.5 Z"/></g>
</svg>
