 <!DOCTYPE svg PUBLIC "-//W3C//DTD SVG 1.1//EN" "http://www.w3.org/Graphics/SVG/1.1/DTD/svg11.dtd">
<svg id="bd635c35-9b1c-42c7-b389-3d15febfa5fa" data-name="ab7410ec-6d95-4fc1-925b-fec5ca367c11" xmlns="http://www.w3.org/2000/svg" width="865.8" height="682.9" viewBox="0 0 865.8 682.9">
<defs>
<style xmlns="http://www.w3.org/1999/xhtml">*, ::after, ::before { box-sizing: border-box; }
img, svg { vertical-align: middle; }
</style>
<style xmlns="http://www.w3.org/1999/xhtml">*, body, html { }
img, svg { max-width: 100%; }
</style>
</defs>
<rect x="76.4" y="16.7" width="711.6" height="505.2" fill="#ccc"/>
<rect x="64.7" y="521.9" width="736.4" height="19.4" fill="#ccc"/>
<rect x="90" y="30.2" width="685.7" height="491.6" fill="#fff"/>
<rect x="101.3" y="40.7" width="107.7" height="153.8" fill="#ccc"/>
<rect x="212.5" y="40.7" width="107.7" height="153.8" fill="#ccc"/>
<rect x="323.5" y="40.7" width="107.7" height="153.8" fill="#ccc"/>
<rect x="434.6" y="40.7" width="107.7" height="153.8" fill="#ccc"/>
<rect x="545.9" y="40.7" width="107.7" height="153.8" fill="#ccc"/>
<rect x="656.9" y="40.7" width="107.7" height="153.8" fill="#ccc"/>
<rect x="101.3" y="199.1" width="107.7" height="153.8" fill="#ccc"/>
<rect x="212.5" y="199.1" width="107.7" height="153.8" fill="#ccc"/>
<rect x="323.5" y="199.1" width="107.7" height="153.8" fill="#ccc"/>
<rect x="434.6" y="199.1" width="107.7" height="153.8" opacity="0.2" style="isolation:isolate"/>
<rect x="545.9" y="199.1" width="107.7" height="153.8" fill="#ccc"/>
<rect x="545.9" y="199.1" width="107.7" height="153.8" opacity="0.2" style="isolation:isolate"/>
<rect x="656.9" y="199.1" width="107.7" height="153.8" fill="#ccc"/>
<rect x="101.2" y="357.5" width="107.7" height="153.8" fill="#ccc"/>
<rect x="212.5" y="357.5" width="107.7" height="153.8" fill="#ccc"/>
<rect x="323.5" y="357.5" width="107.7" height="153.8" fill="#ccc"/>
<rect x="434.6" y="357.5" width="107.7" height="153.8" fill="#ccc"/>
<rect x="545.8" y="357.5" width="107.7" height="153.8" fill="#ccc"/>
<rect x="656.8" y="357.5" width="107.7" height="153.8" fill="#ccc"/>
<g opacity="0.31">
<rect x="212.5" y="357.5" width="107.7" height="153.8" fill="#fff"/>
<rect x="323.5" y="357.5" width="107.7" height="153.8" fill="#fff"/>
<rect x="434.6" y="357.5" width="107.7" height="153.8" fill="#fff"/>
<rect x="545.8" y="357.5" width="107.7" height="153.8" fill="#fff"/>
<rect x="656.8" y="357.5" width="107.7" height="153.8" fill="#fff"/>
</g>
<polygon points="101.3 222.7 151.8 199.1 209 199.1 101.3 269.3 101.3 222.7" fill="#2f2e41" data-secondary="true"/>
<polygon points="161 194.6 209 171.5 209 194.6 161 194.6" fill="#2f2e41" data-secondary="true"/>
<path d="M218.6,194.6h-6.1V169.9s5-1.1,6.1-4.8l11.5-32.4h14.6l-13,40,43.4-5.9L314,130.5h4.5l-35.2,48.2-49.6,9.9a42,42,0,0,0-15.1,6Z" fill="#2f2e41" data-secondary="true"/>
<path d="M101.3,75.7v-35H209v48S161.6,99.4,101.3,75.7Z" fill="#2f2e41" data-secondary="true"/>
<path d="M431.2,40.7V65s-19.3,12.4-52.3,18.3V40.7Z" fill="#2f2e41" data-secondary="true"/>
<path d="M434.6,64.2s24.6-9.4,43.2-23.5H434.6Z" fill="#2f2e41" data-secondary="true"/>
<path d="M126.8,40.7s-3.2,82.2,82.2,89.7V40.7Z" fill="#2f2e41" data-secondary="true"/>
<path d="M212.5,130.4V40.7H320.2v89.7S270.6,146,212.5,130.4Z" fill="#2f2e41" data-secondary="true"/>
<path d="M323.5,129.1V40.7H395s9.5,47.7-7.9,60.3a11.48,11.48,0,0,1-2.7,1.4c-5.3,1.8-27,9.4-38,16.8-2.1,1.4-4.2,2.7-6.4,3.9C335.8,125.3,329.3,128.3,323.5,129.1Z" fill="#2f2e41" data-secondary="true"/>
<g opacity="0.16">
<path d="M126.8,40.7s-3.2,82.2,82.2,89.7V40.7Z"/>
<path d="M212.5,130.4V40.7H320.2v89.7S270.6,146,212.5,130.4Z"/>
<path d="M323.5,129.1V40.7H395s9.5,47.7-7.9,60.3a11.48,11.48,0,0,1-2.7,1.4c-5.3,1.8-27,9.4-38,16.8-2.1,1.4-4.2,2.7-6.4,3.9C335.8,125.3,329.3,128.3,323.5,129.1Z"/>
</g>
<rect x="101.2" y="460.7" width="27.1" height="50.7" opacity="0.2" style="isolation:isolate"/>
<rect x="128.4" y="413.4" width="80.6" height="98" fill="#fff" opacity="0.31" style="isolation:isolate"/>
<polygon points="168.6 401 168.6 357.5 208.9 357.5 208.9 413.4 128.4 413.4 128.4 401.1 168.6 401" opacity="0.2" style="isolation:isolate"/>
<polygon points="168.6 353 168.6 346.8 185 331.1 185 298.9 208.9 298.9 208.9 353 168.6 353" opacity="0.2" style="isolation:isolate"/>
<rect x="212.5" y="298.9" width="15.8" height="54" opacity="0.2" style="isolation:isolate"/>
<polygon points="212.5 413.4 228.3 413.4 228.3 358.4 212.5 358.4 212.5 413.4" opacity="0.2" style="isolation:isolate"/>
<rect x="228.3" y="209.3" width="91.9" height="143.6" fill="#fff" opacity="0.31" style="isolation:isolate"/>
<polygon points="323.5 353 431.2 353 431.2 332.1 375.8 332.1 375.8 209.3 323.5 209.3 323.5 353" fill="#fff" opacity="0.31" style="isolation:isolate"/>
<rect x="352.4" y="203.8" width="19" height="122.7" opacity="0.2" style="isolation:isolate"/>
<rect x="434.6" y="332.1" width="16.1" height="20.9" opacity="0.2" style="isolation:isolate"/>
<rect x="528.8" y="199.1" width="13.5" height="153.8" fill="#fff" opacity="0.31" style="isolation:isolate"/>
<rect x="528.8" y="156.4" width="13.5" height="38.2" opacity="0.2" style="isolation:isolate"/>
<polygon points="545.9 156.4 599.7 156.4 599.7 137.3 653.5 102.8 653.5 194.6 545.9 194.6 545.9 156.4" opacity="0.2" style="isolation:isolate"/>
<rect x="528.8" y="168.9" width="13.5" height="25.7" fill="#fff" opacity="0.31" style="isolation:isolate"/>
<rect x="545.9" y="168.9" width="75.1" height="25.7" fill="#fff" opacity="0.31" style="isolation:isolate"/>
<rect x="545.9" y="199.1" width="75.1" height="153.8" fill="#fff" opacity="0.31" style="isolation:isolate"/>
<polygon points="667.1 194.6 667.1 94 656.9 100.8 656.9 194.6 667.1 194.6" opacity="0.2" style="isolation:isolate"/>
<rect x="656.9" y="199.1" width="10.2" height="153.8" opacity="0.2" style="isolation:isolate"/>
<rect x="240.1" y="229.6" width="80.1" height="10.5" opacity="0.2" style="isolation:isolate"/>
<rect x="240.1" y="254.7" width="80.1" height="10.5" opacity="0.2" style="isolation:isolate"/>
<rect x="240.1" y="278.3" width="80.1" height="10.5" opacity="0.2" style="isolation:isolate"/>
<rect x="240.1" y="303.4" width="80.1" height="10.5" opacity="0.2" style="isolation:isolate"/>
<rect x="240.1" y="328.5" width="80.1" height="10.5" opacity="0.2" style="isolation:isolate"/>
<rect x="323.5" y="228.8" width="20.5" height="10.5" opacity="0.2" style="isolation:isolate"/>
<rect x="323.5" y="254" width="20.5" height="10.5" opacity="0.2" style="isolation:isolate"/>
<rect x="323.5" y="277.5" width="20.5" height="10.5" opacity="0.2" style="isolation:isolate"/>
<rect x="323.5" y="302.7" width="20.5" height="10.5" opacity="0.2" style="isolation:isolate"/>
<rect x="323.5" y="327.8" width="20.5" height="10.5" opacity="0.2" style="isolation:isolate"/>
<path d="M597.9,325.9c-15.2-25.4-15.2-85.1-15.2-85.1s26.9,44.2,21.7,85.1Z" fill="#2f2e41" data-secondary="true"/>
<g opacity="0.2">
<path d="M601.3,325.9l-.7-.1c2.2-14.8-16.1-77.2-16.2-77.8l.7-.2C585.8,250.4,603.5,310.9,601.3,325.9Z" fill="#ccc"/>
</g>
<path d="M603.7,299.1s2.9-26,25.2-47.5c0,0,10.8,13.2-2.6,28,0,0-22.5,28.4-20.1,46.3h-1.9C604.3,325.8,605,310.1,603.7,299.1Z" fill="#2f2e41" data-secondary="true"/>
<path d="M612.7,325.9s10.4-29.6,38.6-45.6a6.79,6.79,0,0,1,8.6,1.7,41.41,41.41,0,0,1,8.3,19.9s8.8-11.6-.6-31.2a13.89,13.89,0,0,0-4.2-5.1c-3.6-2.5-9.9-4.2-18.7,3.5,0,0-26.1,20.1-33,56.9h1Z" fill="#2f2e41" data-secondary="true"/>
<path d="M617.2,325.9s10.2-12,18.6-13c0,0,10.5,24.5,21.4,26.4,0,0-1.1-25.6-17.2-36.1a3.66,3.66,0,0,0-3.9,0c-3.8,2.2-12.5,8.4-21.7,22.7Z" fill="#2f2e41" data-secondary="true"/>
<path d="M194.2,368.5l-10.7-92.4a2.84,2.84,0,0,1,2.4-3.3h.3a2.83,2.83,0,0,1,2.7,2.7l7.9,93Z" fill="#2f2e41" data-secondary="true"/>
<ellipse cx="196.8" cy="372.5" rx="12.3" ry="5.8" fill="#2f2e41" data-secondary="true"/>
<ellipse cx="196.8" cy="372.5" rx="12.3" ry="5.8" opacity="0.2" style="isolation:isolate"/>
<path d="M298.1,559.8s9.8,46.2,6.8,75.7c0,0,13.8,4.3,14-6.1,0,0,1.5-54.8-16.3-93.8,0,0-6.2-11.7-12.5-21C290.1,514.6,297.1,537.5,298.1,559.8Z" fill="#2f2e41" data-secondary="true"/>
<path d="M308.1,632.9s-2,6.5-10.6,10.2l-.9,4.1s10.4-2.3,15.5-14.3Z" fill="#2f2e41" data-secondary="true"/>
<path d="M333.4,648.7h0a2.38,2.38,0,0,0,2.4-1.9l19.5-90.9-7.1-2.6L331,645.8a2.4,2.4,0,0,0,1.9,2.8C333.1,648.6,333.2,648.7,333.4,648.7Z" fill="#ccc"/>
<path d="M518.4,648.7h0a2.38,2.38,0,0,1-2.4-1.9l-19.5-90.9,7.1-2.6,17.1,92.5a2.4,2.4,0,0,1-2,2.8A.44.44,0,0,1,518.4,648.7Z" fill="#ccc"/>
<path d="M505,632.9h0a2.38,2.38,0,0,1-2.4-1.9l-19.5-90.9,7.1-2.6L507.3,630a2.4,2.4,0,0,1-1.9,2.8A.6.6,0,0,1,505,632.9Z" fill="#ccc"/>
<path d="M347.9,632.5h0a2.38,2.38,0,0,0,2.4-1.9l19.5-90.9-7.1-2.6-17.1,92.5a2.4,2.4,0,0,0,1.9,2.8C347.6,632.5,347.7,632.5,347.9,632.5Z" fill="#ccc"/>
<polygon points="726.6 647.5 651.5 407.1 663.8 407.1 733.5 647.5 726.6 647.5" fill="#ccc"/>
<polygon points="726.6 647.5 651.5 407.1 663.8 407.1 733.5 647.5 726.6 647.5" opacity="0.2" style="isolation:isolate"/>
<polygon points="366.6 613.7 369 630.6 383.6 629.7 383.6 614.9 366.6 613.7" fill="#f9b499"/>
<polygon points="471.2 613 473.6 629.9 488.2 629 488.2 614.2 471.2 613" fill="#f9b499"/>
<path d="M362.4,608.4l2.2,9.6s10.9,2.5,20.3,0v-9.7a55.35,55.35,0,0,1-22.5.1Z" fill="#2f2e41" data-secondary="true"/>
<path d="M468.5,607.7l2.2,9.7s10.9,2.5,20.4,0v-9.7a50.85,50.85,0,0,1-12.3,1.2A58,58,0,0,1,468.5,607.7Z" fill="#2f2e41" data-secondary="true"/>
<path d="M532.8,408.4c-.1,0-2.6-1.3-2.7-1.3a11,11,0,0,0-12.8,6.6c-9.5,24-18.1,33.8-18.1,33.8,9.7-27,11.8-83,11.8-83H346c-6.5,58.5,13,85.7,13,85.7-16.7-2.4-25.2-38.6-25.2-38.6-3.3-8.5-15.9-3.3-15.9-3.3v8.4l8.8,36.3,24.1,22.9,64.9,8.2,67.4-6.1,24.1-6.1,14-10.1,9.1-23.8,2.4-25.6Z" fill="#ccc"/>
<path d="M366,400.9v19.7a2.43,2.43,0,0,0,2.4,2.4h0v.6a4.1,4.1,0,0,0,3.3,4.2,215.15,215.15,0,0,0,38.4,4.4s66.2,3.9,73.3-6.7a2.12,2.12,0,0,0,0-1.9,1.45,1.45,0,0,1,.9-1.9c2.1-.9,4.5-4.5,1.1-18.3l20.1-13.8s10.9-2.3,17.2-8.8a14.24,14.24,0,0,0,3.7-12,144.12,144.12,0,0,0-27-63.2l-31.3-12a57,57,0,0,0,2.6-9.2,5.17,5.17,0,0,0-1.4-4.6c-4.1-4.2-14.6-13.8-24.4-15.7,0,0-33.5-8.1-53.3,3.8-1.7,1-3.4,2-5.1,2.9-4.7,2.4-13.1,8.7,5,17,0,0-33.9,3.9-43.1,25.6,0,0-26.4,46.1-18.9,63.6,0,0,3.2,7.5,16.7,12.5" fill="#0071f2" data-primary="true"/>
<polygon points="110.3 666.1 186.6 407.2 201.7 407.2 118 666.1 110.3 666.1" fill="#ccc"/>
<polygon points="128.8 646.8 200 407.2 211.9 407.2 136.6 646.8 128.8 646.8" fill="#ccc"/>
<polygon points="128.8 646.8 200 407.2 211.9 407.2 136.6 646.8 128.8 646.8" opacity="0.2" style="isolation:isolate"/>
<polygon points="744.4 666.2 660.7 407.1 676.7 407.1 751.8 666.2 744.4 666.2" fill="#ccc"/>
<path d="M183.9,652.6s-10.9-59.6,5.3-139c0,0,50.6-14,86,1,0,0,11,70.6,3.3,139C278.5,653.6,213.1,657.1,183.9,652.6Z" fill="#2f2e41" data-secondary="true"/>
<path d="M245.4,646.8s26.6-3.9,34.8-19.7l-1.7,26.5s-63.6,3.6-94.7-1c0,0-.9-5.6-1.4-10.1a10.93,10.93,0,0,0,6.6,4.9,14.6,14.6,0,0,0,2.2.3C197.2,647.9,233.8,648.9,245.4,646.8Z" fill="#fff" opacity="0.09" style="isolation:isolate"/>
<path d="M180.7,620.3s63.7,1.8,99.5,0c0,0,.4-8.5.4-13.4H180.2S180.4,615.6,180.7,620.3Z" fill="#fff" opacity="0.09" style="isolation:isolate"/>
<ellipse cx="266.4" cy="613.2" rx="8.2" ry="4.8" fill="#2f2e41" data-secondary="true"/>
<path d="M275.2,514.6h14.9s11.7,26.8,9.5,84.7l-4,51.5s-1.4,2.7-17.1,2.7c0,0,3.3-50,1.9-63.8C280.4,589.8,279.1,540.5,275.2,514.6Z" fill="#2f2e41" data-secondary="true"/>
<path d="M275.2,514.6h14.9s11.7,26.8,9.5,84.7l-4,51.5s-1.4,2.7-17.1,2.7c0,0,3.3-50,1.9-63.8C280.4,589.8,279.1,540.5,275.2,514.6Z" opacity="0.2" style="isolation:isolate"/>
<path d="M283.9,599.1s-1.5,49.1-2.3,51.8c0,0,13.7-1.1,16.1-2.7,0,0,7.8-29.3,3.5-48.2A99.84,99.84,0,0,0,283.9,599.1Z" fill="#2f2e41" data-secondary="true"/>
<path d="M286.2,585.2h-.7c1.6-29.9-5.2-67.8-5.3-68.2l.7-.1C281,517.2,287.9,555.2,286.2,585.2Z" fill="#fff"/>
<path d="M292.5,585.2h-.7c1.6-29.9-5.2-67.8-5.3-68.2l.7-.1C287.2,517.2,294.1,555.2,292.5,585.2Z" fill="#fff"/>
<path d="M213,509.1s15.4-20.7,42.1-8.2c0,0,7.6,4.3,11.4,9,0,0,20,1.5,23.5,4.7H275.2a79.49,79.49,0,0,0-19.6-5.5s-1.8-4.6-11.3-7.6a24.76,24.76,0,0,0-18.7,1.4c-2.5,1.3-4.8,3.1-5.7,5.4Z" fill="#2f2e41" data-secondary="true"/>
<path d="M213,509.1s15.4-20.7,42.1-8.2c0,0,7.6,4.3,11.4,9,0,0,20,1.5,23.5,4.7H275.2a189.88,189.88,0,0,0-19.6-5.5s-1.8-4.6-11.3-7.6a24.76,24.76,0,0,0-18.7,1.4c-2.5,1.3-4.8,3.1-5.7,5.4Z" fill="#2f2e41" data-secondary="true"/>
<path d="M213,509.1s15.4-20.7,42.1-8.2c0,0,7.6,4.3,11.4,9,0,0,20,1.5,23.5,4.7H275.2a189.88,189.88,0,0,0-19.6-5.5s-1.8-4.6-11.3-7.6a24.76,24.76,0,0,0-18.7,1.4c-2.5,1.3-4.8,3.1-5.7,5.4Z" fill="#fff" opacity="0.09" style="isolation:isolate"/>
<path d="M337.5,460.8C327,453.4,322.1,422,320.7,411a2.84,2.84,0,0,0-3.2-2.5,1.61,1.61,0,0,0-.9.3h-.1a2.91,2.91,0,0,0-1.6,2.8c.4,7.9,3.1,40.6,18.2,56.5,0,0,17.6,19.8,60.8,18.9h.3c3.6.3,78,6.4,119-15.4a31.38,31.38,0,0,0,13.6-14.3,106.1,106.1,0,0,0,9.7-47.4s.3-1.3-2.5-2.1a2.94,2.94,0,0,0-3.6,2,1.7,1.7,0,0,0-.1.7c-.2,12-2.8,53-26.2,60.3,0,0-42.4,14.6-114.3,8.8C389.8,479.6,361.2,477.5,337.5,460.8Z" fill="#ccc"/>
<path d="M337.5,460.8C327,453.4,322.1,422,320.7,411a2.84,2.84,0,0,0-3.2-2.5,1.61,1.61,0,0,0-.9.3h-.1a2.91,2.91,0,0,0-1.6,2.8c.4,7.9,3.1,40.6,18.2,56.5,0,0,17.6,19.8,60.8,18.9h.3c3.6.3,78,6.4,119-15.4a31.38,31.38,0,0,0,13.6-14.3,97.51,97.51,0,0,0,9.7-45.7,3.71,3.71,0,0,0-2.5-3.8,2.94,2.94,0,0,0-3.6,2,1.7,1.7,0,0,0-.1.7c-.2,12-2.8,53-26.2,60.3,0,0-42.4,14.6-114.3,8.8C389.8,479.6,361.2,477.5,337.5,460.8Z" opacity="0.2" style="isolation:isolate"/>
<path d="M372.1,426.9s-15.7,16.3-32.7,32.3c0,0-9.9,5.5-5.8,17.7,0,0,14,88.5,27.2,120.5,0,0-15,9.2,1.7,12.9,0,0,23.8,3.5,32.4-3.5,0,0-.8-10-7.5-16L379.8,488s27.7-12.9,36-18.7c0,0,13.9-1.8,20.4,0,0,0,29.9,10.7,37.5,14.9,0,0-14.9,65.5-6.4,99.9,0,0-14.9,23.8,2.1,25.6,0,0,19.1,2.3,28.6-3.3a4,4,0,0,0,1.9-4.6,39.67,39.67,0,0,0-5.1-11.3s20.1-98.1,21.6-110c0,0,5.2-14.3-2.4-22.9L481,427Z" fill="#2f2e41" data-secondary="true"/>
<path d="M485.3,476.8c-5.9-3.2-41.7-22.7-57.5-19.5V437.2s48.2.5,60.1-3.8l-6.7-6.7-109.1.2-2,2.1s37,10.8,55.1,8.1l.5,20c-4.9-.2-18.5.3-33.7,11.7l-.1.1a62.18,62.18,0,0,1-20.4,14.8.82.82,0,0,0-.4,1,.78.78,0,0,0,.4.4h.1a.7.7,0,0,1,.4,1,1.21,1.21,0,0,1-.5.5,18,18,0,0,0-6.4,2.6.78.78,0,0,0-.2,1h0c1.9,2.3,8.2,13.5,14.4,62.2h0c.2,1,7.1,37.5,6.7,46.6a.76.76,0,0,0,.6.8,12.63,12.63,0,0,0,5.8.1.72.72,0,0,0,.5-.9v-.1a31.79,31.79,0,0,0-5.2-7.9.76.76,0,0,1-.2-.5l-7.6-102.1a.67.67,0,0,1,.4-.7c3.7-1.7,28.1-13.1,35.3-18.4.1-.1.2-.1.4-.1l15.5-.7a12.37,12.37,0,0,1,6.8,1.5h.1c1.2.4,28.4,10.4,34.9,13.9a.91.91,0,0,1,.4.8c-1.4,5.9-13.4,60.1-7.1,95.4a.73.73,0,0,0,.9.6c.3-.1.6-.3.6-.6,2.5-16.2,11.9-75.6,14.6-84.2v-.1c.3-.6,3.8-8.4-1.7-11.1a.69.69,0,0,1-.3-1c0-.1.1-.1.1-.2l5-5.4a.67.67,0,0,0-.1-1A1.87,1.87,0,0,1,485.3,476.8Z" opacity="0.2" style="isolation:isolate"/>
<g opacity="0.1">
<path d="M434.2,413.1c-9,0-15.3-.5-15.4-.5-2.9-.3-3.9-.8-4-1.7,0-.3,0-.9,2-1.7H385.3v-1.4h37l.1,1.4a35.3,35.3,0,0,0-5.8,1.6,18.46,18.46,0,0,0,2.3.4c.3,0,29.4,2.6,52.8-3.4l.4,1.4C459.3,412.3,444.9,413.1,434.2,413.1Z" fill="#231f20"/>
</g>
<path d="M382.5,289.7s-4.5-7.9-2-12.2c0,0-1.3,4.5,11.1,10.4C391.6,287.9,385.6,288.9,382.5,289.7Z" fill="#0071f2" data-primary="true"/>
<path d="M382.5,289.7s-4.5-7.9-2-12.2c0,0-1.3,4.5,11.1,10.4C391.6,287.9,385.6,288.9,382.5,289.7Z" opacity="0.16" style="isolation:isolate"/>
<path d="M470.9,283.6l-10.6,4.9,8.6,3.2A53.26,53.26,0,0,0,470.9,283.6Z" opacity="0.16" style="isolation:isolate"/>
<path d="M416.6,291.7a25.47,25.47,0,0,1-9.5-1.8c-8.8-3.5-26.1-11.1-22.2-15.4,0,0,2.1-1.5,5.1-3.2a50.8,50.8,0,0,1,22.2-7c12.1-.8,33.4-1,43.7,6.6,0,0,13.7,7.9,2.5,13.4l-3.8,2.4a32.77,32.77,0,0,1-17.5,5.1H416.6Z" fill="#0071f2" data-primary="true"/>
<path d="M416.6,291.7a25.47,25.47,0,0,1-9.5-1.8c-8.8-3.5-26.1-11.1-22.2-15.4,0,0,2.1-1.5,5.1-3.2a50.8,50.8,0,0,1,22.2-7c12.1-.8,33.4-1,43.7,6.6,0,0,13.7,7.9,2.5,13.4l-3.8,2.4a32.77,32.77,0,0,1-17.5,5.1H416.6Z" opacity="0.16" style="isolation:isolate"/>
<path d="M345.7,646.3l22.1-15.5-7.7-6.1a3.36,3.36,0,0,1-.6-4.7,6.47,6.47,0,0,1,.9-.8l3.9-2.3a6.83,6.83,0,0,1,8.8,1.7l7.2,9.5s.2-4.7,2-5.6a.73.73,0,0,1,1,.4v.1l4,16.2a2.9,2.9,0,0,1-1.7,3.3c-4.6,1.9-15.3,6.5-19.4,6.2l-2.7-3a5.8,5.8,0,0,0-4.4-2.1h0a8.29,8.29,0,0,0-6,2.2l-1.2,1.1-5.2.6C346.3,647.5,345.3,646.5,345.7,646.3Z" fill="#0071f2" data-primary="true"/>
<path d="M351.9,646.9l1.8-1.6a7.08,7.08,0,0,1,4.8-1.9h0a7.29,7.29,0,0,1,5.5,2.5l2.3,2.7c3.3.2,19.4-6.2,19.4-6.2a2.91,2.91,0,0,0,1.7-2.3,16,16,0,0,1,1.1,5.7,2.17,2.17,0,0,1-1.4,2,72.79,72.79,0,0,1-27.4,4.6s-19,1.8-14-6.1C345.7,646.3,344.3,647.8,351.9,646.9Z" fill="#2f2e41" data-secondary="true"/>
<path d="M510.1,646.4,488,630.9l7.7-6.1a3.36,3.36,0,0,0,.6-4.7,6.47,6.47,0,0,0-.9-.8l-3.9-2.3a6.83,6.83,0,0,0-8.8,1.7l-7.2,9.5s-.2-4.7-2-5.6a1,1,0,0,0-1,.4v.1l-4,16.2a3,3,0,0,0,1.7,3.3c4.7,1.9,15.4,6.5,19.4,6.2l2.2-2.5a7.64,7.64,0,0,1,5.9-2.5,5.82,5.82,0,0,1,4.3,1.8l2,1.6a10.47,10.47,0,0,0,3,.5,9.25,9.25,0,0,0,2.9-.4C510.1,647.1,510.2,647,510.1,646.4Z" fill="#0071f2" data-primary="true"/>
<path d="M503.9,647l-1.8-1.6a7.08,7.08,0,0,0-4.8-1.9h0a7.29,7.29,0,0,0-5.5,2.5l-2.3,2.7c-3.3.3-19.4-6.2-19.4-6.2a2.73,2.73,0,0,1-1.7-2.3,16.57,16.57,0,0,0-1.1,6.2,1.42,1.42,0,0,0,.9,1.3,73.38,73.38,0,0,0,27.8,4.8s19,1.8,14-6.1C510.1,646.4,511,648,503.9,647Z" fill="#2f2e41" data-secondary="true"/>
<polygon points="581.8 325.9 572.8 351 583.9 389.6 624.7 389.6 635.8 350.6 628.4 325.9 581.8 325.9" fill="#2f2e41" data-secondary="true"/>
<g opacity="0.2">
<polygon points="572.9 351.3 572.8 351 572.9 350.6 635.6 349.8 635.8 350.5 572.9 351.3"/>
</g>
<polygon points="581.5 381.3 627 381.3 624.7 389.6 583.9 389.6 581.5 381.3" opacity="0.2" style="isolation:isolate"/>
<g opacity="0.2">
<path d="M558.7,349.2c-.5-1.6-12.5-39.4,4.2-50.4l.4.6c-16.2,10.7-4,49.2-3.9,49.6Z" fill="#ccc"/>
</g>
<path d="M550.3,267.8s18.9-5.7,27.2,11C577.5,278.8,556.2,284,550.3,267.8Z" fill="#2f2e41" data-secondary="true"/>
<path d="M602.5,261.1s-2.9-16.3,9-17.5A19.59,19.59,0,0,1,602.5,261.1Z" fill="#2f2e41" data-secondary="true"/>
<polygon points="172.6 372.7 174.7 389.6 222 389.6 223.3 372.7 172.6 372.7" fill="#2f2e41" data-secondary="true"/>
<path d="M191.7,259.2l60.8-57a2.38,2.38,0,0,1,3.4.1h0a2.76,2.76,0,0,1-.2,4h0l-62.6,54.8a1.12,1.12,0,0,1-1.6-.1h0A1.52,1.52,0,0,1,191.7,259.2Z" fill="#2f2e41" data-secondary="true"/>
<circle cx="259.4" cy="202" r="7.3" transform="translate(18.46 425.69) rotate(-80.78)" fill="#2f2e41" data-secondary="true"/>
<circle cx="259.4" cy="202" r="7.3" transform="translate(18.46 425.69) rotate(-80.78)" opacity="0.2" style="isolation:isolate"/>
<path d="M255.7,245.7c1.7-1.9,3.9-5.5,4.8-11.9a41.72,41.72,0,0,0-.6-14.1,13.71,13.71,0,0,1,.6-7.5,12.72,12.72,0,0,1,12.3-8h.3a14.58,14.58,0,0,1,4.6,1c3.3,1.4,14,4.8,28.8-.1,0,0,1.6-1.2,4.3.8l7.5,8.5s-21.1,35.4-57.5,46.9a17.67,17.67,0,0,1-6.4-9A6.19,6.19,0,0,1,255.7,245.7Z" fill="#2f2e41" data-secondary="true"/>
<g opacity="0.2">
<path d="M257.4,258.3l-.5-.6a55.58,55.58,0,0,1,26.3-22.3c.2-.1,22.5-8.9,28.8-27.7l.5.6c-6.4,19.1-28.9,27.7-29.1,27.8C266,242.9,257.5,258.1,257.4,258.3Z"/>
</g>
<g opacity="0.2">
<path d="M260.7,225.9l-.1-.8c.1-.1,13.5-7.4,19.5-19l.7.2C274.8,218.2,260.8,225.8,260.7,225.9Z"/>
</g>
<ellipse cx="271.66" cy="208.27" rx="1.5" ry="3.1" transform="translate(-70.39 221.57) rotate(-39.7)" opacity="0.2" style="isolation:isolate"/>
<ellipse cx="267.53" cy="211.81" rx="1.5" ry="3.1" transform="translate(-73.6 219.74) rotate(-39.7)" opacity="0.2" style="isolation:isolate"/>
<ellipse cx="263.74" cy="215.9" rx="1.5" ry="3.1" transform="translate(-77.09 218.27) rotate(-39.7)" opacity="0.2" style="isolation:isolate"/>
<polygon points="243.5 331.6 253.9 389.6 274 389.6 283 331.6 243.5 331.6" fill="#2f2e41" data-secondary="true"/>
<path d="M241.6,325l-1.1,6.6H286l-1.6-6.8a2.59,2.59,0,0,0-2.7-2.1H244.4A2.81,2.81,0,0,0,241.6,325Z" fill="#2f2e41" data-secondary="true"/>
<path d="M241.6,325l-1.1,6.6H286l-1.6-6.8a2.59,2.59,0,0,0-2.7-2.1H244.4A2.81,2.81,0,0,0,241.6,325Z" opacity="0.2" style="isolation:isolate"/>
<path d="M361.5,291.7H494.6a6,6,0,0,1,6,6v.2l-3.4,91.7H358.5l-3-91.7a6,6,0,0,1,5.8-6.2Z" fill="#ccc"/>
<path d="M438.9,175.2a27.77,27.77,0,0,0-5.5-1.4,39.9,39.9,0,0,0-12.9.2,41.52,41.52,0,0,0-8.5,2.5s-4.5-7.2,1.3-7.2c0,0,1.7-17.1,22.8-8.8C436.1,160.5,448.1,163.9,438.9,175.2Z" fill="#3f3d56"/>
<path d="M438.9,175.2a27.77,27.77,0,0,0-5.5-1.4,39.9,39.9,0,0,0-12.9.2,41.52,41.52,0,0,0-8.5,2.5s-4.5-7.2,1.3-7.2c0,0,1.7-17.1,22.8-8.8C436.1,160.5,448.1,163.9,438.9,175.2Z" opacity="0.2" style="isolation:isolate"/>
<path d="M433.7,172.6a2.38,2.38,0,0,1-.3,1.2,39.9,39.9,0,0,0-12.9.2,2.46,2.46,0,0,1-.5-1.5c0-2.2,3.1-4,6.9-4S433.7,170.4,433.7,172.6Z" fill="#3f3d56"/>
<path d="M441.1,271.2l-.9,11.6a4.85,4.85,0,0,1-1.3,3.1l-5,5.8H413.5l-6.1-7a5.35,5.35,0,0,1-1.3-3.8l.5-11.9Z" fill="#f9b499"/>
<polygon points="174.7 399.4 180.1 409.8 220.4 409.8 225.2 399.4 174.7 399.4" fill="#2f2e41" data-secondary="true"/>
<polygon points="638.5 399.4 644 409.8 684.2 409.8 689.1 399.4 638.5 399.4" fill="#2f2e41" data-secondary="true"/>
<polygon points="745 403.4 113.6 403.4 112.2 389.6 747.1 389.6 745 403.4" fill="#ccc"/>
<polygon points="745 403.4 113.6 403.4 112.2 389.6 747.1 389.6 745 403.4" opacity="0.2" style="isolation:isolate"/>
<circle cx="189.6" cy="268.8" r="10.5" fill="#2f2e41" data-secondary="true"/>
<circle cx="189.6" cy="268.8" r="10.5" opacity="0.2" style="isolation:isolate"/>
<polygon points="248.7 360.6 250.3 369.5 277.1 369.5 278.5 360.6 248.7 360.6" fill="#3f3d56"/>
<polygon points="248.7 360.6 250.3 369.5 277.1 369.5 278.5 360.6 248.7 360.6" opacity="0.2" style="isolation:isolate"/>
<ellipse cx="395.2" cy="221.4" rx="5" ry="7.4" fill="#f9b499"/>
<ellipse cx="456.7" cy="221.4" rx="5" ry="7.4" fill="#f9b499"/>
<path d="M402.9,268.5c5.5,5.5,13.6,10.9,24.6,11,0,0,16.8-.3,25.4-14.6,0,0-1-5.5,2-5.1,0,0,4.5-.6,3.8-13.5L456,202.7l4.7-2.5s-3.2-19.1-21.7-25.1c0,0-14-5.5-30.6,3.1,0,0-14.6,9-16.5,20.5l4.7,6.1a346.73,346.73,0,0,0-2.4,42A30.2,30.2,0,0,0,402.9,268.5Z" fill="#2f2e41" data-secondary="true"/>
<path d="M410.2,249.3c-3.1-2.8-8.5-8-11.5-13.8a13.67,13.67,0,0,1-1.5-6.9c.2-8,1.3-28.4,5.8-27,0,0,21.4,10.3,39.2,1.6,0,0,7.6-5.8,10,.3,0,0,2.1,15.1,3.3,23.1a15.55,15.55,0,0,1-1.5,9,117.34,117.34,0,0,1-6,10.4,7.7,7.7,0,0,1-8,3.4,15,15,0,0,1-4.6-1.7s-13.8-4.8-20.8,1.5A3.35,3.35,0,0,1,410.2,249.3Z" fill="#f9b499"/>
</svg>